{
  "accessors": [
    {
      "bufferView": 1,
      "componentType": 5126,
      "count": 65532,
      "max": [
        0.08246970176696777,
        0.14547500014305115,
        0.04120749980211258
      ],
      "min": [
        -0.09082300215959549,
        0.0528487004339695,
        -0.05036440119147301
      ],
      "type": "VEC3"
    },
    {
      "bufferView": 1,
      "byteOffset": 786384,
      "componentType": 5126,
      "count": 65532,
      "max": [
        0.999932587146759,
        0.9999476671218872,
        0.9999998211860657
      ],
      "min": [
        -0.9999848008155823,
        -0.9999992251396179,
        -1.0
      ],
      "type": "VEC3"
    },
    {
      "bufferView": 0,
      "componentType": 5125,
      "count": 332853,
      "type": "SCALAR"
    },
    {
      "bufferView": 1,
      "byteOffset": 1572768,
      "componentType": 5126,
      "count": 65532,
      "max": [
        0.08317139744758606,
        0.18194599449634552,
        0.02421250008046627
      ],
      "min": [
        -0.10828699916601181,
        0.052989501506090164,
        -0.041514601558446884
      ],
      "type": "VEC3"
    },
    {
      "bufferView": 1,
      "byteOffset": 2359152,
      "componentType": 5126,
      "count": 65532,
      "max": [
        0.9998670220375061,
        1.0,
        0.9999998211860657
      ],
      "min": [
        -1.0,
        -1.0,
        -0.999995231628418
      ],
      "type": "VEC3"
    },
    {
      "bufferView": 0,
      "byteOffset": 1331412,
      "componentType": 5125,
      "count": 307707,
      "type": "SCALAR"
    },
    {
      "bufferView": 1,
      "byteOffset": 3145536,
      "componentType": 5126,
      "count": 65532,
      "max": [
        0.08417700231075287,
        0.1812860071659088,
        0.016862500458955765
      ],
      "min": [
        -0.10832399874925613,
        0.05277739837765694,
        -0.039555199444293976
      ],
      "type": "VEC3"
    },
    {
      "bufferView": 1,
      "byteOffset": 3931920,
      "componentType": 5126,
      "count": 65532,
      "max": [
        0.9999867081642151,
        1.0,
        0.9999845623970032
      ],
      "min": [
        -1.0,
        -1.0,
        -0.999984622001648
      ],
      "type": "VEC3"
    },
    {
      "bufferView": 0,
      "byteOffset": 2562240,
      "componentType": 5125,
      "count": 298596,
      "type": "SCALAR"
    },
    {
      "bufferView": 1,
      "byteOffset": 4718304,
      "componentType": 5126,
      "count": 65532,
      "max": [
        0.08417700231075287,
        0.18222500383853912,
        0.008812510408461094
      ],
      "min": [
        -0.10517299920320511,
        0.05281050130724907,
        -0.047304701060056686
      ],
      "type": "VEC3"
    },
    {
      "bufferView": 1,
      "byteOffset": 5504688,
      "componentType": 5126,
      "count": 65532,
      "max": [
        0.9999867081642151,
        1.0,
        1.0
      ],
      "min": [
        -0.9999155402183533,
        -1.0,
        -0.9999837875366211
      ],
      "type": "VEC3"
    },
    {
      "bufferView": 0,
      "byteOffset": 3756624,
      "componentType": 5125,
      "count": 300339,
      "type": "SCALAR"
    },
    {
      "bufferView": 1,
      "byteOffset": 6291072,
      "componentType": 5126,
      "count": 65532,
      "max": [
        0.08374349772930145,
        0.18578800559043884,
        0.002512499922886491
      ],
      "min": [
        -0.10447300225496292,
        0.05272949859499931,
        -0.040887501090765
      ],
      "type": "VEC3"
    },
    {
      "bufferView": 1,
      "byteOffset": 7077456,
      "componentType": 5126,
      "count": 65532,
      "max": [
        0.9996898174285889,
        1.0,
        0.9999958276748657
      ],
      "min": [
        -1.0,
        -1.0,
        -0.9999937415122986
      ],
      "type": "VEC3"
    },
    {
      "bufferView": 0,
      "byteOffset": 4957980,
      "componentType": 5125,
      "count": 302934,
      "type": "SCALAR"
    },
    {
      "bufferView": 1,
      "byteOffset": 7863840,
      "componentType": 5126,
      "count": 65532,
      "max": [
        0.08207699656486511,
        0.19708099961280823,
        -0.001687500043772161
      ],
      "min": [
        -0.10272300243377686,
        0.05273820087313652,
        -0.04238969832658768
      ],
      "type": "VEC3"
    },
    {
      "bufferView": 1,
      "byteOffset": 8650224,
      "componentType": 5126,
      "count": 65532,
      "max": [
        1.0,
        1.0,
        0.9999973177909851
      ],
      "min": [
        -0.9998847246170044,
        -1.0,
        -0.9999938607215881
      ],
      "type": "VEC3"
    },
    {
      "bufferView": 0,
      "byteOffset": 6169716,
      "componentType": 5125,
      "count": 310962,
      "type": "SCALAR"
    },
    {
      "bufferView": 1,
      "byteOffset": 9436608,
      "componentType": 5126,
      "count": 65532,
      "max": [
        0.08522699773311615,
        0.19717299938201904,
        -0.005187499802559614
      ],
      "min": [
        -0.09077350050210953,
        0.052838098257780075,
        -0.04374520108103752
      ],
      "type": "VEC3"
    },
    {
      "bufferView": 1,
      "byteOffset": 10222992,
      "componentType": 5126,
      "count": 65532,
      "max": [
        0.9997215270996094,
        1.0,
        0.9973469972610474
      ],
      "min": [
        -0.9950767159461975,
        -1.0,
        -0.9999954700469971
      ],
      "type": "VEC3"
    },
    {
      "bufferView": 0,
      "byteOffset": 7413564,
      "componentType": 5125,
      "count": 308388,
      "type": "SCALAR"
    },
    {
      "bufferView": 1,
      "byteOffset": 11009376,
      "componentType": 5126,
      "count": 65532,
      "max": [
        0.09362699836492538,
        0.19595199823379517,
        -0.004354950040578842
      ],
      "min": [
        -0.09103800356388092,
        0.05276479944586754,
        -0.050414301455020905
      ],
      "type": "VEC3"
    },
    {
      "bufferView": 1,
      "byteOffset": 11795760,
      "componentType": 5126,
      "count": 65532,
      "max": [
        0.9999663233757019,
        1.0,
        0.999251663684845
      ],
      "min": [
        -1.0,
        -1.0,
        -1.0
      ],
      "type": "VEC3"
    },
    {
      "bufferView": 0,
      "byteOffset": 8647116,
      "componentType": 5125,
      "count": 275100,
      "type": "SCALAR"
    },
    {
      "bufferView": 1,
      "byteOffset": 12582144,
      "componentType": 5126,
      "count": 46447,
      "max": [
        0.09656620025634766,
        0.18607500195503235,
        -0.0027410699985921383
      ],
      "min": [
        -0.10237299650907516,
        0.05274850130081177,
        -0.01638749986886978
      ],
      "type": "VEC3"
    },
    {
      "bufferView": 1,
      "byteOffset": 13139508,
      "componentType": 5126,
      "count": 46447,
      "max": [
        0.999893307685852,
        1.0,
        0.999981701374054
      ],
      "min": [
        -0.9999034404754639,
        -1.0,
        -0.9998763203620911
      ],
      "type": "VEC3"
    },
    {
      "bufferView": 0,
      "byteOffset": 9747516,
      "componentType": 5125,
      "count": 177039,
      "type": "SCALAR"
    }
  ],
  "asset": {
    "extras": {
      "author": "3D graphics 101 (https://sketchfab.com/3dgraphics)",
      "license": "CC-BY-NC-4.0 (http://creativecommons.org/licenses/by-nc/4.0/)",
      "source": "https://sketchfab.com/3d-models/stanford-dragon-vrip-b602a35846e74533b1d9f06034a3b730",
      "title": "Stanford Dragon (Vrip)"
    },
    "generator": "Sketchfab-11.51.1",
    "version": "2.0"
  },
  "bufferViews": [
    {
      "buffer": 0,
      "byteLength": 10455672,
      "name": "floatBufferViews",
      "target": 34963
    },
    {
      "buffer": 0,
      "byteLength": 13696872,
      "byteOffset": 10455672,
      "byteStride": 12,
      "name": "floatBufferViews",
      "target": 34962
    }
  ],
  "buffers": [
    {
      "byteLength": 24152544,
      "uri": "scene.bin"
    }
  ],
  "materials": [
    {
      "doubleSided": true,
      "name": "Scene_-_Root",
      "pbrMetallicRoughness": {
        "baseColorFactor": [
          0.5,
          0.5,
          0.5,
          1.0
        ],
        "metallicFactor": 0.0,
        "roughnessFactor": 0.9
      }
    }
  ],
  "meshes": [
    {
      "name": "Object_0",
      "primitives": [
        {
          "attributes": {
            "NORMAL": 1,
            "POSITION": 0
          },
          "indices": 2,
          "material": 0,
          "mode": 4
        }
      ]
    },
    {
      "name": "Object_1",
      "primitives": [
        {
          "attributes": {
            "NORMAL": 4,
            "POSITION": 3
          },
          "indices": 5,
          "material": 0,
          "mode": 4
        }
      ]
    },
    {
      "name": "Object_2",
      "primitives": [
        {
          "attributes": {
            "NORMAL": 7,
            "POSITION": 6
          },
          "indices": 8,
          "material": 0,
          "mode": 4
        }
      ]
    },
    {
      "name": "Object_3",
      "primitives": [
        {
          "attributes": {
            "NORMAL": 10,
            "POSITION": 9
          },
          "indices": 11,
          "material": 0,
          "mode": 4
        }
      ]
    },
    {
      "name": "Object_4",
      "primitives": [
        {
          "attributes": {
            "NORMAL": 13,
            "POSITION": 12
          },
          "indices": 14,
          "material": 0,
          "mode": 4
        }
      ]
    },
    {
      "name": "Object_5",
      "primitives": [
        {
          "attributes": {
            "NORMAL": 16,
            "POSITION": 15
          },
          "indices": 17,
          "material": 0,
          "mode": 4
        }
      ]
    },
    {
      "name": "Object_6",
      "primitives": [
        {
          "attributes": {
            "NORMAL": 19,
            "POSITION": 18
          },
          "indices": 20,
          "material": 0,
          "mode": 4
        }
      ]
    },
    {
      "name": "Object_7",
      "primitives": [
        {
          "attributes": {
            "NORMAL": 22,
            "POSITION": 21
          },
          "indices": 23,
          "material": 0,
          "mode": 4
        }
      ]
    },
    {
      "name": "Object_8",
      "primitives": [
        {
          "attributes": {
            "NORMAL": 25,
            "POSITION": 24
          },
          "indices": 26,
          "material": 0,
          "mode": 4
        }
      ]
    }
  ],
  "nodes": [
    {
      "children": [
        1
      ],
      "matrix": [
        1.0,
        0.0,
        0.0,
        0.0,
        0.0,
        1.0,
        2.220446049250313e-16,
        0.0,
        0.0,
        -2.220446049250313e-16,
        1.0,
        0.0,
        0.0,
        0.0,
        0.0,
        1.0
      ],
      "name": "Sketchfab_model"
    },
    {
      "children": [
        2,
        3,
        4,
        5,
        6,
        7,
        8,
        9,
        10
      ],
      "name": "Geode"
    },
    {
      "mesh": 0,
      "name": "Object_2"
    },
    {
      "mesh": 1,
      "name": "Object_3"
    },
    {
      "mesh": 2,
      "name": "Object_4"
    },
    {
      "mesh": 3,
      "name": "Object_5"
    },
    {
      "mesh": 4,
      "name": "Object_6"
    },
    {
      "mesh": 5,
      "name": "Object_7"
    },
    {
      "mesh": 6,
      "name": "Object_8"
    },
    {
      "mesh": 7,
      "name": "Object_9"
    },
    {
      "mesh": 8,
      "name": "Object_10"
    }
  ],
  "scene": 0,
  "scenes": [
    {
      "name": "Sketchfab_Scene",
      "nodes": [
        0
      ]
    }
  ]
}
