{
  "accessors": [
    {
      "bufferView": 0,
      "componentType": 5126,
      "count": 156,
      "type": "VEC3",
      "max": [
        0.44624999165534973,
        0.34999999403953552,
        0.72984957695007324
      ],
      "min": [
        -0.44624999165534973,
        -4.51194631754889E-17,
        -0.75274199247360229
      ]
    },
    {
      "bufferView": 1,
      "componentType": 5126,
      "count": 156,
      "type": "VEC3",
      "max": [
        1.0,
        1.0,
        1.0
      ],
      "min": [
        -1.0,
        -1.0,
        -1.0
      ]
    },
    {
      "bufferView": 2,
      "componentType": 5126,
      "count": 156,
      "type": "VEC4",
      "max": [
        1.0,
        0.0,
        1.0,
        1.0
      ],
      "min": [
        -1.0,
        0.0,
        -1.0,
        1.0
      ]
    },
    {
      "bufferView": 3,
      "componentType": 5126,
      "count": 156,
      "type": "VEC2",
      "max": [
        57.468471527099609,
        60.271022796630859
      ],
      "min": [
        -57.468471527099609,
        -56.468471527099609
      ]
    },
    {
      "bufferView": 4,
      "componentType": 5121,
      "count": 312,
      "type": "SCALAR",
      "max": [
        155.0
      ],
      "min": [
        0.0
      ]
    }
  ],
  "asset": {
    "version": "2.0"
  },
  "buffers": [
    {
      "uri": "boat_small.bin",
      "byteLength": 7800
    }
  ],
  "bufferViews": [
    {
      "buffer": 0,
      "byteLength": 1872
    },
    {
      "buffer": 0,
      "byteOffset": 1872,
      "byteLength": 1872
    },
    {
      "buffer": 0,
      "byteOffset": 3744,
      "byteLength": 2496
    },
    {
      "buffer": 0,
      "byteOffset": 6240,
      "byteLength": 1248
    },
    {
      "buffer": 0,
      "byteOffset": 7488,
      "byteLength": 312
    }
  ],
  "materials": [
    {
      "pbrMetallicRoughness": {
        "baseColorFactor": [
          0.7294118,
          0.4627451,
          0.2784314,
          1.0
        ],
        "metallicFactor": 0.25,
        "roughnessFactor": 0.84999999403953552
      },
      "name": "wood"
    }
  ],
  "meshes": [
    {
      "primitives": [
        {
          "attributes": {
            "POSITION": 0,
            "NORMAL": 1,
            "TANGENT": 2,
            "TEXCOORD_0": 3
          },
          "indices": 4,
          "material": 0
        }
      ],
      "name": "boat_small_8angles"
    }
  ],
  "nodes": [
    {
      "mesh": 0,
      "translation": [
        -0.325000018,
        2.0574476E-14,
        -9.962257
      ],
      "name": "boat_small_8angles"
    }
  ],
  "scene": 0,
  "scenes": [
    {
      "nodes": [
        0
      ],
      "name": "boat_small"
    }
  ]
}