{
  "accessors": [
    {
      "bufferView": 0,
      "componentType": 5126,
      "count": 252,
      "type": "VEC3",
      "max": [
        0.21723608672618866,
        0.55602347850799561,
        0.3171791136264801
      ],
      "min": [
        -0.21723608672618866,
        0.10180000215768814,
        -0.26217913627624512
      ]
    },
    {
      "bufferView": 1,
      "componentType": 5126,
      "count": 252,
      "type": "VEC3",
      "max": [
        1.0,
        1.0,
        1.0
      ],
      "min": [
        -1.0,
        -1.0,
        -1.0
      ]
    },
    {
      "bufferView": 2,
      "componentType": 5126,
      "count": 252,
      "type": "VEC4",
      "max": [
        1.0,
        0.0,
        1.0,
        1.0
      ],
      "min": [
        -1.0,
        0.0,
        -1.0,
        1.0
      ]
    },
    {
      "bufferView": 3,
      "componentType": 5126,
      "count": 252,
      "type": "VEC2",
      "max": [
        24.974733352661133,
        21.644025802612305
      ],
      "min": [
        -24.974733352661133,
        -42.781375885009766
      ]
    },
    {
      "bufferView": 4,
      "componentType": 5121,
      "count": 144,
      "type": "SCALAR",
      "max": [
        95.0
      ],
      "min": [
        0.0
      ]
    },
    {
      "bufferView": 5,
      "componentType": 5121,
      "count": 360,
      "type": "SCALAR",
      "max": [
        251.0
      ],
      "min": [
        96.0
      ]
    },
    {
      "bufferView": 6,
      "componentType": 5126,
      "count": 1344,
      "type": "VEC3",
      "max": [
        0.13824114203453064,
        0.13824114203453064,
        0.21974015235900879
      ],
      "min": [
        -0.13824114203453064,
        -0.13824114203453064,
        -0.35504752397537231
      ]
    },
    {
      "bufferView": 7,
      "componentType": 5126,
      "count": 1344,
      "type": "VEC3",
      "max": [
        1.0,
        1.0,
        1.0
      ],
      "min": [
        -1.0,
        -1.0,
        -1.0
      ]
    },
    {
      "bufferView": 8,
      "componentType": 5126,
      "count": 1344,
      "type": "VEC4",
      "max": [
        1.0,
        0.1078750342130661,
        1.0,
        1.0
      ],
      "min": [
        -1.0,
        -0.1078750416636467,
        -1.0,
        -1.0
      ]
    },
    {
      "bufferView": 9,
      "componentType": 5126,
      "count": 1344,
      "type": "VEC2",
      "max": [
        27.956497192382813,
        15.244912147521973
      ],
      "min": [
        -27.956497192382813,
        -13.244912147521973
      ]
    },
    {
      "bufferView": 10,
      "componentType": 5123,
      "count": 2568,
      "type": "SCALAR",
      "max": [
        1343.0
      ],
      "min": [
        0.0
      ]
    },
    {
      "bufferView": 11,
      "componentType": 5126,
      "count": 288,
      "type": "VEC3",
      "max": [
        1.1550582572925159E-14,
        0.12839999794960022,
        0.12839999794960022
      ],
      "min": [
        -0.09920000284910202,
        -0.12839999794960022,
        -0.12839999794960022
      ]
    },
    {
      "bufferView": 12,
      "componentType": 5126,
      "count": 288,
      "type": "VEC3",
      "max": [
        1.0,
        1.0,
        1.0
      ],
      "min": [
        -1.0,
        -1.0,
        -1.0
      ]
    },
    {
      "bufferView": 13,
      "componentType": 5126,
      "count": 288,
      "type": "VEC4",
      "max": [
        1.0,
        0.0,
        1.0,
        1.0
      ],
      "min": [
        -1.0,
        0.0,
        -1.0,
        1.0
      ]
    },
    {
      "bufferView": 14,
      "componentType": 5126,
      "count": 288,
      "type": "VEC2",
      "max": [
        10.110236167907715,
        11.110236167907715
      ],
      "min": [
        -10.110236167907715,
        -9.1102361679077148
      ]
    },
    {
      "bufferView": 15,
      "componentType": 5121,
      "count": 144,
      "type": "SCALAR",
      "max": [
        95.0
      ],
      "min": [
        0.0
      ]
    },
    {
      "bufferView": 16,
      "componentType": 5123,
      "count": 420,
      "type": "SCALAR",
      "max": [
        287.0
      ],
      "min": [
        96.0
      ]
    }
  ],
  "asset": {
    "version": "2.0"
  },
  "buffers": [
    {
      "uri": "cannonMobile.bin",
      "byteLength": 97056
    }
  ],
  "bufferViews": [
    {
      "buffer": 0,
      "byteLength": 3024
    },
    {
      "buffer": 0,
      "byteOffset": 3024,
      "byteLength": 3024
    },
    {
      "buffer": 0,
      "byteOffset": 6048,
      "byteLength": 4032
    },
    {
      "buffer": 0,
      "byteOffset": 10080,
      "byteLength": 2016
    },
    {
      "buffer": 0,
      "byteOffset": 12096,
      "byteLength": 144
    },
    {
      "buffer": 0,
      "byteOffset": 12240,
      "byteLength": 360
    },
    {
      "buffer": 0,
      "byteOffset": 12600,
      "byteLength": 16128
    },
    {
      "buffer": 0,
      "byteOffset": 28728,
      "byteLength": 16128
    },
    {
      "buffer": 0,
      "byteOffset": 44856,
      "byteLength": 21504
    },
    {
      "buffer": 0,
      "byteOffset": 66360,
      "byteLength": 10752
    },
    {
      "buffer": 0,
      "byteOffset": 77112,
      "byteLength": 5136
    },
    {
      "buffer": 0,
      "byteOffset": 82248,
      "byteLength": 3456
    },
    {
      "buffer": 0,
      "byteOffset": 85704,
      "byteLength": 3456
    },
    {
      "buffer": 0,
      "byteOffset": 89160,
      "byteLength": 4608
    },
    {
      "buffer": 0,
      "byteOffset": 93768,
      "byteLength": 2304
    },
    {
      "buffer": 0,
      "byteOffset": 96072,
      "byteLength": 144
    },
    {
      "buffer": 0,
      "byteOffset": 96216,
      "byteLength": 840
    }
  ],
  "materials": [
    {
      "pbrMetallicRoughness": {
        "baseColorFactor": [
          0.3764706,
          0.3764706,
          0.3764706,
          1.0
        ],
        "metallicFactor": 0.25,
        "roughnessFactor": 0.84999999403953552
      },
      "name": "iron"
    },
    {
      "pbrMetallicRoughness": {
        "baseColorFactor": [
          0.7294118,
          0.4627451,
          0.2784314,
          1.0
        ],
        "metallicFactor": 0.25,
        "roughnessFactor": 0.84999999403953552
      },
      "name": "wood"
    }
  ],
  "meshes": [
    {
      "primitives": [
        {
          "attributes": {
            "POSITION": 0,
            "NORMAL": 1,
            "TANGENT": 2,
            "TEXCOORD_0": 3
          },
          "indices": 4,
          "material": 0
        },
        {
          "attributes": {
            "POSITION": 0,
            "NORMAL": 1,
            "TANGENT": 2,
            "TEXCOORD_0": 3
          },
          "indices": 5,
          "material": 1
        }
      ],
      "name": "cannonMobile_8angles"
    },
    {
      "primitives": [
        {
          "attributes": {
            "POSITION": 6,
            "NORMAL": 7,
            "TANGENT": 8,
            "TEXCOORD_0": 9
          },
          "indices": 10,
          "material": 0
        }
      ],
      "name": "barrel 2"
    },
    {
      "primitives": [
        {
          "attributes": {
            "POSITION": 11,
            "NORMAL": 12,
            "TANGENT": 13,
            "TEXCOORD_0": 14
          },
          "indices": 15,
          "material": 0
        },
        {
          "attributes": {
            "POSITION": 11,
            "NORMAL": 12,
            "TANGENT": 13,
            "TEXCOORD_0": 14
          },
          "indices": 16,
          "material": 1
        }
      ],
      "name": "wheel_backLeft"
    }
  ],
  "nodes": [
    {
      "children": [
        1,
        2,
        3,
        4,
        5
      ],
      "mesh": 0,
      "translation": [
        0.122236095,
        2.0574476E-14,
        -7.72504759
      ],
      "name": "cannonMobile_8angles"
    },
    {
      "mesh": 1,
      "translation": [
        -1.44382282E-15,
        0.4502171,
        -0.06717911
      ],
      "name": "barrel 2"
    },
    {
      "mesh": 2,
      "translation": [
        -0.217236087,
        0.1284,
        0.262179136
      ],
      "name": "wheel_backLeft"
    },
    {
      "mesh": 2,
      "rotation": [
        0.0,
        -1.0,
        0.0,
        7.45057749E-09
      ],
      "translation": [
        0.217236087,
        0.1284,
        0.262179136
      ],
      "name": "wheel_backRight"
    },
    {
      "mesh": 2,
      "translation": [
        -0.217236087,
        0.1284,
        -0.197179124
      ],
      "name": "wheel_frontLeft"
    },
    {
      "mesh": 2,
      "rotation": [
        0.0,
        -1.0,
        0.0,
        7.45057749E-09
      ],
      "translation": [
        0.217236087,
        0.1284,
        -0.197179124
      ],
      "name": "wheel_frontRight"
    }
  ],
  "scene": 0,
  "scenes": [
    {
      "nodes": [
        0
      ],
      "name": "cannonMobile"
    }
  ]
}