{
  "accessors": [
    {
      "bufferView": 0,
      "componentType": 5126,
      "count": 138,
      "type": "VEC3",
      "max": [
        0.35749998688697815,
        0.5189443826675415,
        0.31499999761581421
      ],
      "min": [
        -0.35749998688697815,
        -2.3023550782357022E-18,
        -0.3182252049446106
      ]
    },
    {
      "bufferView": 1,
      "componentType": 5126,
      "count": 138,
      "type": "VEC3",
      "max": [
        1.0,
        1.0,
        1.0
      ],
      "min": [
        -1.0,
        -1.0,
        -1.0
      ]
    },
    {
      "bufferView": 2,
      "componentType": 5126,
      "count": 138,
      "type": "VEC4",
      "max": [
        1.0,
        0.0,
        1.0,
        1.0
      ],
      "min": [
        -1.0,
        0.0,
        -1.0,
        1.0
      ]
    },
    {
      "bufferView": 3,
      "componentType": 5126,
      "count": 138,
      "type": "VEC2",
      "max": [
        28.149606704711914,
        25.803150177001953
      ],
      "min": [
        -28.149606704711914,
        -39.861763000488281
      ]
    },
    {
      "bufferView": 4,
      "componentType": 5121,
      "count": 228,
      "type": "SCALAR",
      "max": [
        117.0
      ],
      "min": [
        0.0
      ]
    },
    {
      "bufferView": 5,
      "componentType": 5121,
      "count": 48,
      "type": "SCALAR",
      "max": [
        137.0
      ],
      "min": [
        22.0
      ]
    },
    {
      "bufferView": 6,
      "componentType": 5126,
      "count": 550,
      "type": "VEC3",
      "max": [
        0.38249999284744263,
        0.34314814209938049,
        0.077209904789924622
      ],
      "min": [
        -0.38249999284744263,
        0.0,
        -0.60640990734100342
      ]
    },
    {
      "bufferView": 7,
      "componentType": 5126,
      "count": 550,
      "type": "VEC3",
      "max": [
        1.0,
        1.0,
        0.99144488573074341
      ],
      "min": [
        -1.0,
        -1.0,
        -0.99144488573074341
      ]
    },
    {
      "bufferView": 8,
      "componentType": 5126,
      "count": 550,
      "type": "VEC4",
      "max": [
        1.0,
        0.0,
        1.0,
        1.0
      ],
      "min": [
        -1.0,
        0.0,
        -1.0,
        1.0
      ]
    },
    {
      "bufferView": 9,
      "componentType": 5126,
      "count": 550,
      "type": "VEC2",
      "max": [
        47.748813629150391,
        42.669292449951172
      ],
      "min": [
        -47.748813629150391,
        -46.444786071777344
      ]
    },
    {
      "bufferView": 10,
      "componentType": 5123,
      "count": 624,
      "type": "SCALAR",
      "max": [
        341.0
      ],
      "min": [
        0.0
      ]
    },
    {
      "bufferView": 11,
      "componentType": 5123,
      "count": 456,
      "type": "SCALAR",
      "max": [
        549.0
      ],
      "min": [
        33.0
      ]
    }
  ],
  "asset": {
    "version": "2.0"
  },
  "buffers": [
    {
      "uri": "chest.bin",
      "byteLength": 35460
    }
  ],
  "bufferViews": [
    {
      "buffer": 0,
      "byteLength": 1656
    },
    {
      "buffer": 0,
      "byteOffset": 1656,
      "byteLength": 1656
    },
    {
      "buffer": 0,
      "byteOffset": 3312,
      "byteLength": 2208
    },
    {
      "buffer": 0,
      "byteOffset": 5520,
      "byteLength": 1104
    },
    {
      "buffer": 0,
      "byteOffset": 6624,
      "byteLength": 228
    },
    {
      "buffer": 0,
      "byteOffset": 6852,
      "byteLength": 48
    },
    {
      "buffer": 0,
      "byteOffset": 6900,
      "byteLength": 6600
    },
    {
      "buffer": 0,
      "byteOffset": 13500,
      "byteLength": 6600
    },
    {
      "buffer": 0,
      "byteOffset": 20100,
      "byteLength": 8800
    },
    {
      "buffer": 0,
      "byteOffset": 28900,
      "byteLength": 4400
    },
    {
      "buffer": 0,
      "byteOffset": 33300,
      "byteLength": 1248
    },
    {
      "buffer": 0,
      "byteOffset": 34548,
      "byteLength": 912
    }
  ],
  "materials": [
    {
      "pbrMetallicRoughness": {
        "baseColorFactor": [
          0.7294118,
          0.4627451,
          0.2784314,
          1.0
        ],
        "metallicFactor": 0.25,
        "roughnessFactor": 0.84999999403953552
      },
      "name": "wood"
    },
    {
      "pbrMetallicRoughness": {
        "baseColorFactor": [
          0.58431375,
          0.6862745,
          0.75686276,
          1.0
        ],
        "metallicFactor": 0.25,
        "roughnessFactor": 0.84999999403953552
      },
      "name": "stone"
    }
  ],
  "meshes": [
    {
      "primitives": [
        {
          "attributes": {
            "POSITION": 0,
            "NORMAL": 1,
            "TANGENT": 2,
            "TEXCOORD_0": 3
          },
          "indices": 4,
          "material": 0
        },
        {
          "attributes": {
            "POSITION": 0,
            "NORMAL": 1,
            "TANGENT": 2,
            "TEXCOORD_0": 3
          },
          "indices": 5,
          "material": 1
        }
      ],
      "name": "chest"
    },
    {
      "primitives": [
        {
          "attributes": {
            "POSITION": 6,
            "NORMAL": 7,
            "TANGENT": 8,
            "TEXCOORD_0": 9
          },
          "indices": 10,
          "material": 0
        },
        {
          "attributes": {
            "POSITION": 6,
            "NORMAL": 7,
            "TANGENT": 8,
            "TEXCOORD_0": 9
          },
          "indices": 11,
          "material": 1
        }
      ],
      "name": "lid"
    }
  ],
  "nodes": [
    {
      "children": [
        1
      ],
      "mesh": 0,
      "scale": [
        0.64,
        0.64,
        0.64
      ],
      "translation": [
        -2.62998271,
        7.21911464E-16,
        -6.29410934
      ],
      "name": "chest"
    },
    {
      "mesh": 1,
      "translation": [
        0.0,
        0.515,
        0.2646
      ],
      "name": "lid"
    }
  ],
  "scene": 0,
  "scenes": [
    {
      "nodes": [
        0
      ],
      "name": "chest"
    }
  ]
}