{
  "accessors": [
    {
      "bufferView": 0,
      "componentType": 5126,
      "count": 264,
      "type": "VEC3",
      "max": [
        0.0,
        1.2247499227523804,
        1.0671254396438599
      ],
      "min": [
        -1.0598505735397339,
        0.0,
        0.0
      ]
    },
    {
      "bufferView": 1,
      "componentType": 5126,
      "count": 264,
      "type": "VEC3",
      "max": [
        0.97844976186752319,
        1.0,
        0.99644654989242554
      ],
      "min": [
        -0.91019237041473389,
        -1.0,
        -0.99644654989242554
      ]
    },
    {
      "bufferView": 2,
      "componentType": 5126,
      "count": 264,
      "type": "VEC4",
      "max": [
        1.0,
        0.0288461372256279,
        0.98353850841522217,
        1.0
      ],
      "min": [
        -1.0,
        -0.028846161440014839,
        -1.0,
        1.0
      ]
    },
    {
      "bufferView": 3,
      "componentType": 5126,
      "count": 264,
      "type": "VEC2",
      "max": [
        85.7635269165039,
        39.710906982421875
      ],
      "min": [
        -95.961906433105469,
        -100.33792877197266
      ]
    },
    {
      "bufferView": 4,
      "componentType": 5121,
      "count": 366,
      "type": "SCALAR",
      "max": [
        199.0
      ],
      "min": [
        0.0
      ]
    },
    {
      "bufferView": 5,
      "componentType": 5123,
      "count": 150,
      "type": "SCALAR",
      "max": [
        263.0
      ],
      "min": [
        200.0
      ]
    }
  ],
  "asset": {
    "version": "2.0"
  },
  "buffers": [
    {
      "uri": "formation_rock.bin",
      "byteLength": 13338
    }
  ],
  "bufferViews": [
    {
      "buffer": 0,
      "byteLength": 3168
    },
    {
      "buffer": 0,
      "byteOffset": 3168,
      "byteLength": 3168
    },
    {
      "buffer": 0,
      "byteOffset": 6336,
      "byteLength": 4224
    },
    {
      "buffer": 0,
      "byteOffset": 10560,
      "byteLength": 2112
    },
    {
      "buffer": 0,
      "byteOffset": 12672,
      "byteLength": 366
    },
    {
      "buffer": 0,
      "byteOffset": 13038,
      "byteLength": 300
    }
  ],
  "materials": [
    {
      "pbrMetallicRoughness": {
        "baseColorFactor": [
          0.7294118,
          0.4627451,
          0.2784314,
          1.0
        ],
        "metallicFactor": 0.25,
        "roughnessFactor": 0.84999999403953552
      },
      "name": "wood"
    },
    {
      "pbrMetallicRoughness": {
        "baseColorFactor": [
          0.847058833,
          0.7607843,
          0.607843161,
          1.0
        ],
        "metallicFactor": 0.25,
        "roughnessFactor": 0.84999999403953552
      },
      "name": "sand"
    }
  ],
  "meshes": [
    {
      "primitives": [
        {
          "attributes": {
            "POSITION": 0,
            "NORMAL": 1,
            "TANGENT": 2,
            "TEXCOORD_0": 3
          },
          "indices": 4,
          "material": 0
        },
        {
          "attributes": {
            "POSITION": 0,
            "NORMAL": 1,
            "TANGENT": 2,
            "TEXCOORD_0": 3
          },
          "indices": 5,
          "material": 1
        }
      ],
      "name": "formation_rock"
    }
  ],
  "nodes": [
    {
      "mesh": 0,
      "translation": [
        5.695,
        1.98525634E-14,
        -10.6688328
      ],
      "name": "formation_rock"
    }
  ],
  "scene": 0,
  "scenes": [
    {
      "nodes": [
        0
      ],
      "name": "formation_rock"
    }
  ]
}