{
  "accessors": [
    {
      "bufferView": 0,
      "componentType": 5126,
      "count": 92,
      "type": "VEC3",
      "max": [
        0.02500000037252903,
        0.10499999672174454,
        0.071971200406551361
      ],
      "min": [
        -0.14394240081310272,
        -0.3912169337272644,
        -0.128445103764534
      ]
    },
    {
      "bufferView": 1,
      "componentType": 5126,
      "count": 92,
      "type": "VEC3",
      "max": [
        1.0,
        1.0,
        1.0
      ],
      "min": [
        -1.0,
        -1.0,
        -1.0
      ]
    },
    {
      "bufferView": 2,
      "componentType": 5126,
      "count": 92,
      "type": "VEC4",
      "max": [
        1.0,
        0.0,
        1.0,
        1.0
      ],
      "min": [
        -1.0,
        0.0,
        -1.0,
        1.0
      ]
    },
    {
      "bufferView": 3,
      "componentType": 5126,
      "count": 92,
      "type": "VEC2",
      "max": [
        11.334047317504883,
        31.804483413696289
      ],
      "min": [
        -11.334047317504883,
        -7.2677164077758789
      ]
    },
    {
      "bufferView": 4,
      "componentType": 5121,
      "count": 90,
      "type": "SCALAR",
      "max": [
        53.0
      ],
      "min": [
        0.0
      ]
    },
    {
      "bufferView": 5,
      "componentType": 5121,
      "count": 48,
      "type": "SCALAR",
      "max": [
        75.0
      ],
      "min": [
        0.0
      ]
    },
    {
      "bufferView": 6,
      "componentType": 5121,
      "count": 30,
      "type": "SCALAR",
      "max": [
        91.0
      ],
      "min": [
        2.0
      ]
    },
    {
      "bufferView": 7,
      "componentType": 5126,
      "count": 92,
      "type": "VEC3",
      "max": [
        0.14394240081310272,
        0.10499999672174454,
        0.071971200406551361
      ],
      "min": [
        -0.02500000037252903,
        -0.3912169337272644,
        -0.128445103764534
      ]
    },
    {
      "bufferView": 8,
      "componentType": 5126,
      "count": 92,
      "type": "VEC3",
      "max": [
        1.0,
        1.0,
        1.0
      ],
      "min": [
        -1.0,
        -1.0,
        -1.0
      ]
    },
    {
      "bufferView": 9,
      "componentType": 5126,
      "count": 92,
      "type": "VEC4",
      "max": [
        1.0,
        0.0,
        1.0,
        1.0
      ],
      "min": [
        -1.0,
        0.0,
        -1.0,
        1.0
      ]
    },
    {
      "bufferView": 10,
      "componentType": 5126,
      "count": 92,
      "type": "VEC2",
      "max": [
        11.334047317504883,
        31.804483413696289
      ],
      "min": [
        -11.334047317504883,
        -7.2677164077758789
      ]
    },
    {
      "bufferView": 11,
      "componentType": 5121,
      "count": 90,
      "type": "SCALAR",
      "max": [
        53.0
      ],
      "min": [
        0.0
      ]
    },
    {
      "bufferView": 12,
      "componentType": 5121,
      "count": 48,
      "type": "SCALAR",
      "max": [
        75.0
      ],
      "min": [
        19.0
      ]
    },
    {
      "bufferView": 13,
      "componentType": 5121,
      "count": 30,
      "type": "SCALAR",
      "max": [
        91.0
      ],
      "min": [
        21.0
      ]
    },
    {
      "bufferView": 14,
      "componentType": 5126,
      "count": 82,
      "type": "VEC3",
      "max": [
        0.1679999977350235,
        0.37296000123023987,
        0.11423999816179276
      ],
      "min": [
        -0.1679999977350235,
        0.0,
        -0.11423999816179276
      ]
    },
    {
      "bufferView": 15,
      "componentType": 5126,
      "count": 82,
      "type": "VEC3",
      "max": [
        1.0,
        1.0,
        1.0
      ],
      "min": [
        -1.0,
        -1.0,
        -1.0
      ]
    },
    {
      "bufferView": 16,
      "componentType": 5126,
      "count": 82,
      "type": "VEC4",
      "max": [
        1.0,
        0.0,
        1.0,
        1.0
      ],
      "min": [
        -1.0,
        0.0,
        -1.0,
        1.0
      ]
    },
    {
      "bufferView": 17,
      "componentType": 5126,
      "count": 82,
      "type": "VEC2",
      "max": [
        13.228346824645996,
        9.9952754974365234
      ],
      "min": [
        -13.228346824645996,
        -28.36693000793457
      ]
    },
    {
      "bufferView": 18,
      "componentType": 5121,
      "count": 90,
      "type": "SCALAR",
      "max": [
        55.0
      ],
      "min": [
        0.0
      ]
    },
    {
      "bufferView": 19,
      "componentType": 5121,
      "count": 66,
      "type": "SCALAR",
      "max": [
        69.0
      ],
      "min": [
        2.0
      ]
    },
    {
      "bufferView": 20,
      "componentType": 5121,
      "count": 12,
      "type": "SCALAR",
      "max": [
        81.0
      ],
      "min": [
        70.0
      ]
    },
    {
      "bufferView": 21,
      "componentType": 5126,
      "count": 179,
      "type": "VEC3",
      "max": [
        0.1592399924993515,
        0.21500000357627869,
        0.11423999816179276
      ],
      "min": [
        -0.1592399924993515,
        0.0,
        -0.13424000144004822
      ]
    },
    {
      "bufferView": 22,
      "componentType": 5126,
      "count": 179,
      "type": "VEC3",
      "max": [
        1.0,
        1.0,
        1.0
      ],
      "min": [
        -1.0,
        -1.0,
        -1.0
      ]
    },
    {
      "bufferView": 23,
      "componentType": 5126,
      "count": 179,
      "type": "VEC4",
      "max": [
        1.0,
        0.0,
        1.0,
        1.0
      ],
      "min": [
        -1.0,
        0.0,
        -1.0,
        1.0
      ]
    },
    {
      "bufferView": 24,
      "componentType": 5126,
      "count": 179,
      "type": "VEC2",
      "max": [
        12.538582801818848,
        11.57007884979248
      ],
      "min": [
        -12.538582801818848,
        -15.929134368896484
      ]
    },
    {
      "bufferView": 25,
      "componentType": 5121,
      "count": 267,
      "type": "SCALAR",
      "max": [
        140.0
      ],
      "min": [
        0.0
      ]
    },
    {
      "bufferView": 26,
      "componentType": 5121,
      "count": 165,
      "type": "SCALAR",
      "max": [
        178.0
      ],
      "min": [
        49.0
      ]
    },
    {
      "bufferView": 27,
      "componentType": 5126,
      "count": 98,
      "type": "VEC3",
      "max": [
        0.0,
        0.10000000149011612,
        0.40715134143829346
      ],
      "min": [
        -0.38601863384246826,
        3.6095570540391122E-16,
        3.2486013221654213E-15
      ]
    },
    {
      "bufferView": 28,
      "componentType": 5126,
      "count": 98,
      "type": "VEC3",
      "max": [
        1.0,
        1.0,
        0.98068010807037354
      ],
      "min": [
        -1.0,
        -1.0,
        -0.72966480255126953
      ]
    },
    {
      "bufferView": 29,
      "componentType": 5126,
      "count": 98,
      "type": "VEC4",
      "max": [
        1.0,
        0.0,
        1.0,
        1.0
      ],
      "min": [
        -1.0,
        0.0,
        -1.0,
        1.0
      ]
    },
    {
      "bufferView": 30,
      "componentType": 5126,
      "count": 98,
      "type": "VEC2",
      "max": [
        33.947849273681641,
        10.643095016479492
      ],
      "min": [
        -36.079299926757813,
        -31.059162139892578
      ]
    },
    {
      "bufferView": 31,
      "componentType": 5121,
      "count": 180,
      "type": "SCALAR",
      "max": [
        97.0
      ],
      "min": [
        0.0
      ]
    },
    {
      "bufferView": 32,
      "componentType": 5126,
      "count": 48,
      "type": "VEC3",
      "max": [
        0.14394240081310272,
        0.0,
        0.071971200406551361
      ],
      "min": [
        -1.4438228216156449E-15,
        -0.40656000375747681,
        -0.10697119683027267
      ]
    },
    {
      "bufferView": 33,
      "componentType": 5126,
      "count": 48,
      "type": "VEC3",
      "max": [
        1.0,
        1.0,
        0.99660229682922363
      ],
      "min": [
        -1.0,
        -1.0,
        -1.0
      ]
    },
    {
      "bufferView": 34,
      "componentType": 5126,
      "count": 48,
      "type": "VEC4",
      "max": [
        1.0,
        0.0,
        1.0,
        1.0
      ],
      "min": [
        -1.0,
        0.0,
        -1.0,
        1.0
      ]
    },
    {
      "bufferView": 35,
      "componentType": 5126,
      "count": 48,
      "type": "VEC2",
      "max": [
        11.334047317504883,
        33.370586395263672
      ],
      "min": [
        -11.334047317504883,
        -4.6670236587524414
      ]
    },
    {
      "bufferView": 36,
      "componentType": 5121,
      "count": 30,
      "type": "SCALAR",
      "max": [
        19.0
      ],
      "min": [
        0.0
      ]
    },
    {
      "bufferView": 37,
      "componentType": 5121,
      "count": 54,
      "type": "SCALAR",
      "max": [
        47.0
      ],
      "min": [
        4.0
      ]
    },
    {
      "bufferView": 38,
      "componentType": 5126,
      "count": 48,
      "type": "VEC3",
      "max": [
        0.0,
        0.0,
        0.071971200406551361
      ],
      "min": [
        -0.14394240081310272,
        -0.40656000375747681,
        -0.10697119683027267
      ]
    },
    {
      "bufferView": 39,
      "componentType": 5126,
      "count": 48,
      "type": "VEC3",
      "max": [
        1.0,
        1.0,
        0.99660229682922363
      ],
      "min": [
        -1.0,
        -1.0,
        -1.0
      ]
    },
    {
      "bufferView": 40,
      "componentType": 5126,
      "count": 48,
      "type": "VEC4",
      "max": [
        1.0,
        0.0,
        1.0,
        1.0
      ],
      "min": [
        -1.0,
        0.0,
        -1.0,
        1.0
      ]
    },
    {
      "bufferView": 41,
      "componentType": 5126,
      "count": 48,
      "type": "VEC2",
      "max": [
        11.334047317504883,
        33.370586395263672
      ],
      "min": [
        -11.334047317504883,
        -4.6670236587524414
      ]
    },
    {
      "bufferView": 42,
      "componentType": 5121,
      "count": 54,
      "type": "SCALAR",
      "max": [
        31.0
      ],
      "min": [
        0.0
      ]
    },
    {
      "bufferView": 43,
      "componentType": 5121,
      "count": 30,
      "type": "SCALAR",
      "max": [
        47.0
      ],
      "min": [
        16.0
      ]
    }
  ],
  "asset": {
    "version": "2.0"
  },
  "buffers": [
    {
      "uri": "pirate_captain.bin",
      "byteLength": 31956
    }
  ],
  "bufferViews": [
    {
      "buffer": 0,
      "byteLength": 1104
    },
    {
      "buffer": 0,
      "byteOffset": 1104,
      "byteLength": 1104
    },
    {
      "buffer": 0,
      "byteOffset": 2208,
      "byteLength": 1472
    },
    {
      "buffer": 0,
      "byteOffset": 3680,
      "byteLength": 736
    },
    {
      "buffer": 0,
      "byteOffset": 4416,
      "byteLength": 90
    },
    {
      "buffer": 0,
      "byteOffset": 4506,
      "byteLength": 48
    },
    {
      "buffer": 0,
      "byteOffset": 4554,
      "byteLength": 30
    },
    {
      "buffer": 0,
      "byteOffset": 4584,
      "byteLength": 1104
    },
    {
      "buffer": 0,
      "byteOffset": 5688,
      "byteLength": 1104
    },
    {
      "buffer": 0,
      "byteOffset": 6792,
      "byteLength": 1472
    },
    {
      "buffer": 0,
      "byteOffset": 8264,
      "byteLength": 736
    },
    {
      "buffer": 0,
      "byteOffset": 9000,
      "byteLength": 90
    },
    {
      "buffer": 0,
      "byteOffset": 9090,
      "byteLength": 48
    },
    {
      "buffer": 0,
      "byteOffset": 9138,
      "byteLength": 30
    },
    {
      "buffer": 0,
      "byteOffset": 9168,
      "byteLength": 984
    },
    {
      "buffer": 0,
      "byteOffset": 10152,
      "byteLength": 984
    },
    {
      "buffer": 0,
      "byteOffset": 11136,
      "byteLength": 1312
    },
    {
      "buffer": 0,
      "byteOffset": 12448,
      "byteLength": 656
    },
    {
      "buffer": 0,
      "byteOffset": 13104,
      "byteLength": 90
    },
    {
      "buffer": 0,
      "byteOffset": 13194,
      "byteLength": 66
    },
    {
      "buffer": 0,
      "byteOffset": 13260,
      "byteLength": 12
    },
    {
      "buffer": 0,
      "byteOffset": 13272,
      "byteLength": 2148
    },
    {
      "buffer": 0,
      "byteOffset": 15420,
      "byteLength": 2148
    },
    {
      "buffer": 0,
      "byteOffset": 17568,
      "byteLength": 2864
    },
    {
      "buffer": 0,
      "byteOffset": 20432,
      "byteLength": 1432
    },
    {
      "buffer": 0,
      "byteOffset": 21864,
      "byteLength": 267
    },
    {
      "buffer": 0,
      "byteOffset": 22131,
      "byteLength": 165
    },
    {
      "buffer": 0,
      "byteOffset": 22296,
      "byteLength": 1176
    },
    {
      "buffer": 0,
      "byteOffset": 23472,
      "byteLength": 1176
    },
    {
      "buffer": 0,
      "byteOffset": 24648,
      "byteLength": 1568
    },
    {
      "buffer": 0,
      "byteOffset": 26216,
      "byteLength": 784
    },
    {
      "buffer": 0,
      "byteOffset": 27000,
      "byteLength": 180
    },
    {
      "buffer": 0,
      "byteOffset": 27180,
      "byteLength": 576
    },
    {
      "buffer": 0,
      "byteOffset": 27756,
      "byteLength": 576
    },
    {
      "buffer": 0,
      "byteOffset": 28332,
      "byteLength": 768
    },
    {
      "buffer": 0,
      "byteOffset": 29100,
      "byteLength": 384
    },
    {
      "buffer": 0,
      "byteOffset": 29484,
      "byteLength": 30
    },
    {
      "buffer": 0,
      "byteOffset": 29514,
      "byteLength": 54
    },
    {
      "buffer": 0,
      "byteOffset": 29568,
      "byteLength": 576
    },
    {
      "buffer": 0,
      "byteOffset": 30144,
      "byteLength": 576
    },
    {
      "buffer": 0,
      "byteOffset": 30720,
      "byteLength": 768
    },
    {
      "buffer": 0,
      "byteOffset": 31488,
      "byteLength": 384
    },
    {
      "buffer": 0,
      "byteOffset": 31872,
      "byteLength": 54
    },
    {
      "buffer": 0,
      "byteOffset": 31926,
      "byteLength": 30
    }
  ],
  "materials": [
    {
      "pbrMetallicRoughness": {
        "baseColorFactor": [
          0.819607854,
          0.7529412,
          0.670588255,
          1.0
        ],
        "metallicFactor": 0.25,
        "roughnessFactor": 0.84999999403953552
      },
      "name": "textile"
    },
    {
      "pbrMetallicRoughness": {
        "baseColorFactor": [
          0.7294118,
          0.4627451,
          0.2784314,
          1.0
        ],
        "metallicFactor": 0.25,
        "roughnessFactor": 0.84999999403953552
      },
      "name": "wood"
    },
    {
      "pbrMetallicRoughness": {
        "baseColorFactor": [
          0.827451,
          0.435294122,
          0.31764707,
          1.0
        ],
        "metallicFactor": 0.25,
        "roughnessFactor": 0.84999999403953552
      },
      "name": "textileRed"
    },
    {
      "pbrMetallicRoughness": {
        "metallicFactor": 0.0,
        "roughnessFactor": 0.5
      },
      "name": "_defaultMat"
    },
    {
      "pbrMetallicRoughness": {
        "baseColorFactor": [
          0.847058833,
          0.7607843,
          0.607843161,
          1.0
        ],
        "metallicFactor": 0.25,
        "roughnessFactor": 0.84999999403953552
      },
      "name": "sand"
    },
    {
      "pbrMetallicRoughness": {
        "baseColorFactor": [
          0.3764706,
          0.3764706,
          0.3764706,
          1.0
        ],
        "metallicFactor": 0.25,
        "roughnessFactor": 0.84999999403953552
      },
      "name": "iron"
    }
  ],
  "meshes": [
    {
      "primitives": [
        {
          "attributes": {
            "POSITION": 0,
            "NORMAL": 1,
            "TANGENT": 2,
            "TEXCOORD_0": 3
          },
          "indices": 4,
          "material": 0
        },
        {
          "attributes": {
            "POSITION": 0,
            "NORMAL": 1,
            "TANGENT": 2,
            "TEXCOORD_0": 3
          },
          "indices": 5,
          "material": 1
        },
        {
          "attributes": {
            "POSITION": 0,
            "NORMAL": 1,
            "TANGENT": 2,
            "TEXCOORD_0": 3
          },
          "indices": 6,
          "material": 2
        }
      ],
      "name": "armLeft"
    },
    {
      "primitives": [
        {
          "attributes": {
            "POSITION": 7,
            "NORMAL": 8,
            "TANGENT": 9,
            "TEXCOORD_0": 10
          },
          "indices": 11,
          "material": 0
        },
        {
          "attributes": {
            "POSITION": 7,
            "NORMAL": 8,
            "TANGENT": 9,
            "TEXCOORD_0": 10
          },
          "indices": 12,
          "material": 1
        },
        {
          "attributes": {
            "POSITION": 7,
            "NORMAL": 8,
            "TANGENT": 9,
            "TEXCOORD_0": 10
          },
          "indices": 13,
          "material": 2
        }
      ],
      "name": "armRight"
    },
    {
      "primitives": [
        {
          "attributes": {
            "POSITION": 14,
            "NORMAL": 15,
            "TANGENT": 16,
            "TEXCOORD_0": 17
          },
          "indices": 18,
          "material": 1
        },
        {
          "attributes": {
            "POSITION": 14,
            "NORMAL": 15,
            "TANGENT": 16,
            "TEXCOORD_0": 17
          },
          "indices": 19,
          "material": 2
        },
        {
          "attributes": {
            "POSITION": 14,
            "NORMAL": 15,
            "TANGENT": 16,
            "TEXCOORD_0": 17
          },
          "indices": 20,
          "material": 3
        }
      ],
      "name": "body"
    },
    {
      "primitives": [
        {
          "attributes": {
            "POSITION": 21,
            "NORMAL": 22,
            "TANGENT": 23,
            "TEXCOORD_0": 24
          },
          "indices": 25,
          "material": 4
        },
        {
          "attributes": {
            "POSITION": 21,
            "NORMAL": 22,
            "TANGENT": 23,
            "TEXCOORD_0": 24
          },
          "indices": 26,
          "material": 1
        }
      ],
      "name": "Group 122"
    },
    {
      "primitives": [
        {
          "attributes": {
            "POSITION": 27,
            "NORMAL": 28,
            "TANGENT": 29,
            "TEXCOORD_0": 30
          },
          "indices": 31,
          "material": 5
        }
      ],
      "name": "Group 122"
    },
    {
      "primitives": [
        {
          "attributes": {
            "POSITION": 32,
            "NORMAL": 33,
            "TANGENT": 34,
            "TEXCOORD_0": 35
          },
          "indices": 36,
          "material": 0
        },
        {
          "attributes": {
            "POSITION": 32,
            "NORMAL": 33,
            "TANGENT": 34,
            "TEXCOORD_0": 35
          },
          "indices": 37,
          "material": 1
        }
      ],
      "name": "legLeft"
    },
    {
      "primitives": [
        {
          "attributes": {
            "POSITION": 38,
            "NORMAL": 39,
            "TANGENT": 40,
            "TEXCOORD_0": 41
          },
          "indices": 42,
          "material": 1
        },
        {
          "attributes": {
            "POSITION": 38,
            "NORMAL": 39,
            "TANGENT": 40,
            "TEXCOORD_0": 41
          },
          "indices": 43,
          "material": 0
        }
      ],
      "name": "legRight"
    }
  ],
  "nodes": [
    {
      "children": [
        1,
        2,
        3,
        4,
        6,
        7
      ],
      "translation": [
        -2.55641437,
        2.0574476E-14,
        -7.591939
      ],
      "name": "pirate_captain_8angles"
    },
    {
      "mesh": 0,
      "translation": [
        -0.168,
        0.70452,
        0.0
      ],
      "name": "armLeft"
    },
    {
      "mesh": 1,
      "translation": [
        0.168,
        0.70452,
        0.0
      ],
      "name": "armRight"
    },
    {
      "mesh": 2,
      "translation": [
        2.88764564E-15,
        0.40656,
        3.609557E-16
      ],
      "name": "body"
    },
    {
      "children": [
        5
      ],
      "mesh": 3,
      "translation": [
        -2.88764564E-15,
        0.77952,
        -7.219114E-16
      ],
      "name": "Group 122"
    },
    {
      "mesh": 4,
      "rotation": [
        0.03315518,
        0.0,
        0.0,
        0.9994502
      ],
      "translation": [
        0.193009317,
        0.214431971,
        -0.253600866
      ],
      "name": "Group 122"
    },
    {
      "mesh": 5,
      "translation": [
        -0.155232,
        0.40656,
        -3.609557E-16
      ],
      "name": "legLeft"
    },
    {
      "mesh": 6,
      "translation": [
        0.155232,
        0.40656,
        -3.609557E-16
      ],
      "name": "legRight"
    }
  ],
  "scene": 0,
  "scenes": [
    {
      "nodes": [
        0
      ],
      "name": "pirate_captain"
    }
  ]
}