{
  "accessors": [
    {
      "bufferView": 0,
      "componentType": 5126,
      "count": 50,
      "type": "VEC3",
      "max": [
        -5.7752912864625795E-15,
        0.075000002980232239,
        0.071971200406551361
      ],
      "min": [
        -0.14394240081310272,
        -0.3912169337272644,
        -0.128445103764534
      ]
    },
    {
      "bufferView": 1,
      "componentType": 5126,
      "count": 50,
      "type": "VEC3",
      "max": [
        1.0,
        1.0,
        0.99995040893554688
      ],
      "min": [
        -1.0,
        -0.96592581272125244,
        -0.9999312162399292
      ]
    },
    {
      "bufferView": 2,
      "componentType": 5126,
      "count": 50,
      "type": "VEC4",
      "max": [
        1.0,
        0.0,
        1.0,
        1.0
      ],
      "min": [
        -1.0,
        0.0,
        -1.0,
        1.0
      ]
    },
    {
      "bufferView": 3,
      "componentType": 5126,
      "count": 50,
      "type": "VEC2",
      "max": [
        11.334047317504883,
        31.804483413696289
      ],
      "min": [
        -11.334047317504883,
        -4.9715819358825684
      ]
    },
    {
      "bufferView": 4,
      "componentType": 5121,
      "count": 84,
      "type": "SCALAR",
      "max": [
        49.0
      ],
      "min": [
        0.0
      ]
    },
    {
      "bufferView": 5,
      "componentType": 5126,
      "count": 50,
      "type": "VEC3",
      "max": [
        0.14394240081310272,
        0.075000002980232239,
        0.071971200406551361
      ],
      "min": [
        7.21911442571558E-15,
        -0.3912169337272644,
        -0.128445103764534
      ]
    },
    {
      "bufferView": 6,
      "componentType": 5126,
      "count": 50,
      "type": "VEC3",
      "max": [
        1.0,
        1.0,
        0.99995040893554688
      ],
      "min": [
        -1.0,
        -0.96592581272125244,
        -0.9999312162399292
      ]
    },
    {
      "bufferView": 7,
      "componentType": 5126,
      "count": 50,
      "type": "VEC4",
      "max": [
        1.0,
        0.0,
        1.0,
        1.0
      ],
      "min": [
        -1.0,
        0.0,
        -1.0,
        1.0
      ]
    },
    {
      "bufferView": 8,
      "componentType": 5126,
      "count": 50,
      "type": "VEC2",
      "max": [
        11.334047317504883,
        31.804483413696289
      ],
      "min": [
        -11.334047317504883,
        -4.9715819358825684
      ]
    },
    {
      "bufferView": 9,
      "componentType": 5121,
      "count": 84,
      "type": "SCALAR",
      "max": [
        49.0
      ],
      "min": [
        0.0
      ]
    },
    {
      "bufferView": 10,
      "componentType": 5126,
      "count": 138,
      "type": "VEC3",
      "max": [
        0.1679999977350235,
        0.37296000123023987,
        0.11423999816179276
      ],
      "min": [
        -0.1679999977350235,
        0.0,
        -0.13424000144004822
      ]
    },
    {
      "bufferView": 11,
      "componentType": 5126,
      "count": 138,
      "type": "VEC3",
      "max": [
        1.0,
        1.0,
        1.0
      ],
      "min": [
        -1.0,
        -1.0,
        -1.0
      ]
    },
    {
      "bufferView": 12,
      "componentType": 5126,
      "count": 138,
      "type": "VEC4",
      "max": [
        1.0,
        0.0,
        1.0,
        1.0
      ],
      "min": [
        -1.0,
        0.0,
        -1.0,
        1.0
      ]
    },
    {
      "bufferView": 13,
      "componentType": 5126,
      "count": 138,
      "type": "VEC2",
      "max": [
        13.228346824645996,
        9.9952754974365234
      ],
      "min": [
        -13.228346824645996,
        -28.36693000793457
      ]
    },
    {
      "bufferView": 14,
      "componentType": 5121,
      "count": 126,
      "type": "SCALAR",
      "max": [
        67.0
      ],
      "min": [
        0.0
      ]
    },
    {
      "bufferView": 15,
      "componentType": 5121,
      "count": 162,
      "type": "SCALAR",
      "max": [
        131.0
      ],
      "min": [
        24.0
      ]
    },
    {
      "bufferView": 16,
      "componentType": 5121,
      "count": 24,
      "type": "SCALAR",
      "max": [
        95.0
      ],
      "min": [
        2.0
      ]
    },
    {
      "bufferView": 17,
      "componentType": 5121,
      "count": 6,
      "type": "SCALAR",
      "max": [
        137.0
      ],
      "min": [
        132.0
      ]
    },
    {
      "bufferView": 18,
      "componentType": 5126,
      "count": 146,
      "type": "VEC3",
      "max": [
        0.1592399924993515,
        0.21500000357627869,
        0.11423999816179276
      ],
      "min": [
        -0.1592399924993515,
        0.0,
        -0.13424000144004822
      ]
    },
    {
      "bufferView": 19,
      "componentType": 5126,
      "count": 146,
      "type": "VEC3",
      "max": [
        1.0,
        1.0,
        1.0
      ],
      "min": [
        -1.0,
        -1.0,
        -1.0
      ]
    },
    {
      "bufferView": 20,
      "componentType": 5126,
      "count": 146,
      "type": "VEC4",
      "max": [
        1.0,
        0.0,
        1.0,
        1.0
      ],
      "min": [
        -1.0,
        0.0,
        -1.0,
        1.0
      ]
    },
    {
      "bufferView": 21,
      "componentType": 5126,
      "count": 146,
      "type": "VEC2",
      "max": [
        12.538582801818848,
        11.57007884979248
      ],
      "min": [
        -12.538582801818848,
        -15.929134368896484
      ]
    },
    {
      "bufferView": 22,
      "componentType": 5121,
      "count": 270,
      "type": "SCALAR",
      "max": [
        137.0
      ],
      "min": [
        0.0
      ]
    },
    {
      "bufferView": 23,
      "componentType": 5121,
      "count": 12,
      "type": "SCALAR",
      "max": [
        145.0
      ],
      "min": [
        138.0
      ]
    },
    {
      "bufferView": 24,
      "componentType": 5126,
      "count": 68,
      "type": "VEC3",
      "max": [
        0.0,
        0.10499999672174454,
        0.30983841419219971
      ],
      "min": [
        -0.27646079659461975,
        -0.11424928903579712,
        -1.4438228216156449E-15
      ]
    },
    {
      "bufferView": 25,
      "componentType": 5126,
      "count": 68,
      "type": "VEC3",
      "max": [
        1.0,
        1.0,
        0.99321061372756958
      ],
      "min": [
        -1.0,
        -1.0,
        -1.0
      ]
    },
    {
      "bufferView": 26,
      "componentType": 5126,
      "count": 68,
      "type": "VEC4",
      "max": [
        1.0,
        0.0,
        1.0,
        1.0
      ],
      "min": [
        -1.0,
        0.0,
        -1.0,
        1.0
      ]
    },
    {
      "bufferView": 27,
      "componentType": 5126,
      "count": 68,
      "type": "VEC2",
      "max": [
        24.396724700927734,
        16.003812789916992
      ],
      "min": [
        -24.396724700927734,
        -21.63182258605957
      ]
    },
    {
      "bufferView": 28,
      "componentType": 5121,
      "count": 108,
      "type": "SCALAR",
      "max": [
        67.0
      ],
      "min": [
        0.0
      ]
    },
    {
      "bufferView": 29,
      "componentType": 5126,
      "count": 52,
      "type": "VEC3",
      "max": [
        0.14394240081310272,
        0.0,
        0.071971200406551361
      ],
      "min": [
        -2.8876456432312897E-15,
        -0.40656000375747681,
        -0.13424000144004822
      ]
    },
    {
      "bufferView": 30,
      "componentType": 5126,
      "count": 52,
      "type": "VEC3",
      "max": [
        1.0,
        1.0,
        0.99660229682922363
      ],
      "min": [
        -1.0,
        -1.0,
        -1.0
      ]
    },
    {
      "bufferView": 31,
      "componentType": 5126,
      "count": 52,
      "type": "VEC4",
      "max": [
        1.0,
        0.0,
        1.0,
        1.0
      ],
      "min": [
        -1.0,
        0.0,
        -1.0,
        1.0
      ]
    },
    {
      "bufferView": 32,
      "componentType": 5126,
      "count": 52,
      "type": "VEC2",
      "max": [
        11.334047317504883,
        33.370586395263672
      ],
      "min": [
        -11.334047317504883,
        -4.6670236587524414
      ]
    },
    {
      "bufferView": 33,
      "componentType": 5121,
      "count": 54,
      "type": "SCALAR",
      "max": [
        31.0
      ],
      "min": [
        0.0
      ]
    },
    {
      "bufferView": 34,
      "componentType": 5121,
      "count": 42,
      "type": "SCALAR",
      "max": [
        51.0
      ],
      "min": [
        5.0
      ]
    },
    {
      "bufferView": 35,
      "componentType": 5126,
      "count": 52,
      "type": "VEC3",
      "max": [
        0.0,
        9.02389263509778E-17,
        0.071971200406551361
      ],
      "min": [
        -0.14394240081310272,
        -0.40656000375747681,
        -0.13424000144004822
      ]
    },
    {
      "bufferView": 36,
      "componentType": 5126,
      "count": 52,
      "type": "VEC3",
      "max": [
        1.0,
        1.0,
        0.99660229682922363
      ],
      "min": [
        -1.0,
        -1.0,
        -1.0
      ]
    },
    {
      "bufferView": 37,
      "componentType": 5126,
      "count": 52,
      "type": "VEC4",
      "max": [
        1.0,
        0.0,
        1.0,
        1.0
      ],
      "min": [
        -1.0,
        0.0,
        -1.0,
        1.0
      ]
    },
    {
      "bufferView": 38,
      "componentType": 5126,
      "count": 52,
      "type": "VEC2",
      "max": [
        11.334047317504883,
        33.370586395263672
      ],
      "min": [
        -11.334047317504883,
        -4.6670236587524414
      ]
    },
    {
      "bufferView": 39,
      "componentType": 5121,
      "count": 54,
      "type": "SCALAR",
      "max": [
        31.0
      ],
      "min": [
        0.0
      ]
    },
    {
      "bufferView": 40,
      "componentType": 5121,
      "count": 42,
      "type": "SCALAR",
      "max": [
        51.0
      ],
      "min": [
        4.0
      ]
    }
  ],
  "asset": {
    "version": "2.0"
  },
  "buffers": [
    {
      "uri": "pirate_crew.bin",
      "byteLength": 27756
    }
  ],
  "bufferViews": [
    {
      "buffer": 0,
      "byteLength": 600
    },
    {
      "buffer": 0,
      "byteOffset": 600,
      "byteLength": 600
    },
    {
      "buffer": 0,
      "byteOffset": 1200,
      "byteLength": 800
    },
    {
      "buffer": 0,
      "byteOffset": 2000,
      "byteLength": 400
    },
    {
      "buffer": 0,
      "byteOffset": 2400,
      "byteLength": 84
    },
    {
      "buffer": 0,
      "byteOffset": 2484,
      "byteLength": 600
    },
    {
      "buffer": 0,
      "byteOffset": 3084,
      "byteLength": 600
    },
    {
      "buffer": 0,
      "byteOffset": 3684,
      "byteLength": 800
    },
    {
      "buffer": 0,
      "byteOffset": 4484,
      "byteLength": 400
    },
    {
      "buffer": 0,
      "byteOffset": 4884,
      "byteLength": 84
    },
    {
      "buffer": 0,
      "byteOffset": 4968,
      "byteLength": 1656
    },
    {
      "buffer": 0,
      "byteOffset": 6624,
      "byteLength": 1656
    },
    {
      "buffer": 0,
      "byteOffset": 8280,
      "byteLength": 2208
    },
    {
      "buffer": 0,
      "byteOffset": 10488,
      "byteLength": 1104
    },
    {
      "buffer": 0,
      "byteOffset": 11592,
      "byteLength": 126
    },
    {
      "buffer": 0,
      "byteOffset": 11718,
      "byteLength": 162
    },
    {
      "buffer": 0,
      "byteOffset": 11880,
      "byteLength": 24
    },
    {
      "buffer": 0,
      "byteOffset": 11904,
      "byteLength": 6
    },
    {
      "buffer": 0,
      "byteOffset": 11910,
      "byteLength": 1752
    },
    {
      "buffer": 0,
      "byteOffset": 13662,
      "byteLength": 1752
    },
    {
      "buffer": 0,
      "byteOffset": 15414,
      "byteLength": 2336
    },
    {
      "buffer": 0,
      "byteOffset": 17750,
      "byteLength": 1168
    },
    {
      "buffer": 0,
      "byteOffset": 18918,
      "byteLength": 270
    },
    {
      "buffer": 0,
      "byteOffset": 19188,
      "byteLength": 12
    },
    {
      "buffer": 0,
      "byteOffset": 19200,
      "byteLength": 816
    },
    {
      "buffer": 0,
      "byteOffset": 20016,
      "byteLength": 816
    },
    {
      "buffer": 0,
      "byteOffset": 20832,
      "byteLength": 1088
    },
    {
      "buffer": 0,
      "byteOffset": 21920,
      "byteLength": 544
    },
    {
      "buffer": 0,
      "byteOffset": 22464,
      "byteLength": 108
    },
    {
      "buffer": 0,
      "byteOffset": 22572,
      "byteLength": 624
    },
    {
      "buffer": 0,
      "byteOffset": 23196,
      "byteLength": 624
    },
    {
      "buffer": 0,
      "byteOffset": 23820,
      "byteLength": 832
    },
    {
      "buffer": 0,
      "byteOffset": 24652,
      "byteLength": 416
    },
    {
      "buffer": 0,
      "byteOffset": 25068,
      "byteLength": 54
    },
    {
      "buffer": 0,
      "byteOffset": 25122,
      "byteLength": 42
    },
    {
      "buffer": 0,
      "byteOffset": 25164,
      "byteLength": 624
    },
    {
      "buffer": 0,
      "byteOffset": 25788,
      "byteLength": 624
    },
    {
      "buffer": 0,
      "byteOffset": 26412,
      "byteLength": 832
    },
    {
      "buffer": 0,
      "byteOffset": 27244,
      "byteLength": 416
    },
    {
      "buffer": 0,
      "byteOffset": 27660,
      "byteLength": 54
    },
    {
      "buffer": 0,
      "byteOffset": 27714,
      "byteLength": 42
    }
  ],
  "materials": [
    {
      "pbrMetallicRoughness": {
        "baseColorFactor": [
          0.7294118,
          0.4627451,
          0.2784314,
          1.0
        ],
        "metallicFactor": 0.25,
        "roughnessFactor": 0.84999999403953552
      },
      "name": "wood"
    },
    {
      "pbrMetallicRoughness": {
        "baseColorFactor": [
          0.819607854,
          0.7529412,
          0.670588255,
          1.0
        ],
        "metallicFactor": 0.25,
        "roughnessFactor": 0.84999999403953552
      },
      "name": "textile"
    },
    {
      "pbrMetallicRoughness": {
        "baseColorFactor": [
          0.847058833,
          0.7607843,
          0.607843161,
          1.0
        ],
        "metallicFactor": 0.25,
        "roughnessFactor": 0.84999999403953552
      },
      "name": "sand"
    },
    {
      "pbrMetallicRoughness": {
        "metallicFactor": 0.0,
        "roughnessFactor": 0.5
      },
      "name": "_defaultMat"
    },
    {
      "pbrMetallicRoughness": {
        "baseColorFactor": [
          0.3764706,
          0.3764706,
          0.3764706,
          1.0
        ],
        "metallicFactor": 0.25,
        "roughnessFactor": 0.84999999403953552
      },
      "name": "iron"
    },
    {
      "pbrMetallicRoughness": {
        "baseColorFactor": [
          0.827451,
          0.435294122,
          0.31764707,
          1.0
        ],
        "metallicFactor": 0.25,
        "roughnessFactor": 0.84999999403953552
      },
      "name": "textileRed"
    }
  ],
  "meshes": [
    {
      "primitives": [
        {
          "attributes": {
            "POSITION": 0,
            "NORMAL": 1,
            "TANGENT": 2,
            "TEXCOORD_0": 3
          },
          "indices": 4,
          "material": 0
        }
      ],
      "name": "armLeft 1"
    },
    {
      "primitives": [
        {
          "attributes": {
            "POSITION": 5,
            "NORMAL": 6,
            "TANGENT": 7,
            "TEXCOORD_0": 8
          },
          "indices": 9,
          "material": 0
        }
      ],
      "name": "armRight 1"
    },
    {
      "primitives": [
        {
          "attributes": {
            "POSITION": 10,
            "NORMAL": 11,
            "TANGENT": 12,
            "TEXCOORD_0": 13
          },
          "indices": 14,
          "material": 0
        },
        {
          "attributes": {
            "POSITION": 10,
            "NORMAL": 11,
            "TANGENT": 12,
            "TEXCOORD_0": 13
          },
          "indices": 15,
          "material": 1
        },
        {
          "attributes": {
            "POSITION": 10,
            "NORMAL": 11,
            "TANGENT": 12,
            "TEXCOORD_0": 13
          },
          "indices": 16,
          "material": 2
        },
        {
          "attributes": {
            "POSITION": 10,
            "NORMAL": 11,
            "TANGENT": 12,
            "TEXCOORD_0": 13
          },
          "indices": 17,
          "material": 3
        }
      ],
      "name": "body 1"
    },
    {
      "primitives": [
        {
          "attributes": {
            "POSITION": 18,
            "NORMAL": 19,
            "TANGENT": 20,
            "TEXCOORD_0": 21
          },
          "indices": 22,
          "material": 0
        },
        {
          "attributes": {
            "POSITION": 18,
            "NORMAL": 19,
            "TANGENT": 20,
            "TEXCOORD_0": 21
          },
          "indices": 23,
          "material": 4
        }
      ],
      "name": "Group 143"
    },
    {
      "primitives": [
        {
          "attributes": {
            "POSITION": 24,
            "NORMAL": 25,
            "TANGENT": 26,
            "TEXCOORD_0": 27
          },
          "indices": 28,
          "material": 5
        }
      ],
      "name": "Group 143"
    },
    {
      "primitives": [
        {
          "attributes": {
            "POSITION": 29,
            "NORMAL": 30,
            "TANGENT": 31,
            "TEXCOORD_0": 32
          },
          "indices": 33,
          "material": 1
        },
        {
          "attributes": {
            "POSITION": 29,
            "NORMAL": 30,
            "TANGENT": 31,
            "TEXCOORD_0": 32
          },
          "indices": 34,
          "material": 0
        }
      ],
      "name": "legLeft 1"
    },
    {
      "primitives": [
        {
          "attributes": {
            "POSITION": 35,
            "NORMAL": 36,
            "TANGENT": 37,
            "TEXCOORD_0": 38
          },
          "indices": 39,
          "material": 1
        },
        {
          "attributes": {
            "POSITION": 35,
            "NORMAL": 36,
            "TANGENT": 37,
            "TEXCOORD_0": 38
          },
          "indices": 40,
          "material": 0
        }
      ],
      "name": "legRight 1"
    }
  ],
  "nodes": [
    {
      "children": [
        1,
        2,
        3,
        4,
        6,
        7
      ],
      "translation": [
        -3.43029952,
        2.0574476E-14,
        -7.591939
      ],
      "name": "pirate_crew_8angles"
    },
    {
      "mesh": 0,
      "translation": [
        -0.168,
        0.70452,
        0.0
      ],
      "name": "armLeft 1"
    },
    {
      "mesh": 1,
      "translation": [
        0.168,
        0.70452,
        0.0
      ],
      "name": "armRight 1"
    },
    {
      "mesh": 2,
      "translation": [
        2.88764564E-15,
        0.40656,
        0.0
      ],
      "name": "body 1"
    },
    {
      "children": [
        5
      ],
      "mesh": 3,
      "translation": [
        -2.88764564E-15,
        0.77952,
        -7.219114E-16
      ],
      "name": "Group 143"
    },
    {
      "mesh": 4,
      "rotation": [
        0.130526185,
        0.0,
        0.0,
        0.9914449
      ],
      "scale": [
        0.93,
        0.93,
        0.93
      ],
      "translation": [
        0.12855427,
        0.193610966,
        -0.13681072
      ],
      "name": "Group 143"
    },
    {
      "mesh": 5,
      "translation": [
        -0.155232,
        0.40656,
        0.0
      ],
      "name": "legLeft 1"
    },
    {
      "mesh": 6,
      "translation": [
        0.155232,
        0.40656,
        0.0
      ],
      "name": "legRight 1"
    }
  ],
  "scene": 0,
  "scenes": [
    {
      "nodes": [
        0
      ],
      "name": "pirate_crew"
    }
  ]
}