{
  "accessors": [
    {
      "bufferView": 0,
      "componentType": 5126,
      "count": 58,
      "type": "VEC3",
      "max": [
        -5.7752912864625795E-15,
        0.075000002980232239,
        0.071971200406551361
      ],
      "min": [
        -0.14394240081310272,
        -0.3912169337272644,
        -0.128445103764534
      ]
    },
    {
      "bufferView": 1,
      "componentType": 5126,
      "count": 58,
      "type": "VEC3",
      "max": [
        1.0,
        1.0,
        0.99995040893554688
      ],
      "min": [
        -1.0,
        -0.96592581272125244,
        -0.9999312162399292
      ]
    },
    {
      "bufferView": 2,
      "componentType": 5126,
      "count": 58,
      "type": "VEC4",
      "max": [
        1.0,
        0.0,
        1.0,
        1.0
      ],
      "min": [
        -1.0,
        0.0,
        -1.0,
        1.0
      ]
    },
    {
      "bufferView": 3,
      "componentType": 5126,
      "count": 58,
      "type": "VEC2",
      "max": [
        11.334047317504883,
        31.804483413696289
      ],
      "min": [
        -11.334047317504883,
        -4.9715819358825684
      ]
    },
    {
      "bufferView": 4,
      "componentType": 5121,
      "count": 42,
      "type": "SCALAR",
      "max": [
        27.0
      ],
      "min": [
        0.0
      ]
    },
    {
      "bufferView": 5,
      "componentType": 5121,
      "count": 24,
      "type": "SCALAR",
      "max": [
        39.0
      ],
      "min": [
        13.0
      ]
    },
    {
      "bufferView": 6,
      "componentType": 5121,
      "count": 42,
      "type": "SCALAR",
      "max": [
        57.0
      ],
      "min": [
        28.0
      ]
    },
    {
      "bufferView": 7,
      "componentType": 5126,
      "count": 58,
      "type": "VEC3",
      "max": [
        0.14394240081310272,
        0.075000002980232239,
        0.071971200406551361
      ],
      "min": [
        7.21911442571558E-15,
        -0.3912169337272644,
        -0.128445103764534
      ]
    },
    {
      "bufferView": 8,
      "componentType": 5126,
      "count": 58,
      "type": "VEC3",
      "max": [
        1.0,
        1.0,
        0.99995040893554688
      ],
      "min": [
        -1.0,
        -0.96592581272125244,
        -0.9999312162399292
      ]
    },
    {
      "bufferView": 9,
      "componentType": 5126,
      "count": 58,
      "type": "VEC4",
      "max": [
        1.0,
        0.0,
        1.0,
        1.0
      ],
      "min": [
        -1.0,
        0.0,
        -1.0,
        1.0
      ]
    },
    {
      "bufferView": 10,
      "componentType": 5126,
      "count": 58,
      "type": "VEC2",
      "max": [
        11.334047317504883,
        31.804483413696289
      ],
      "min": [
        -11.334047317504883,
        -4.9715819358825684
      ]
    },
    {
      "bufferView": 11,
      "componentType": 5121,
      "count": 24,
      "type": "SCALAR",
      "max": [
        15.0
      ],
      "min": [
        0.0
      ]
    },
    {
      "bufferView": 12,
      "componentType": 5121,
      "count": 42,
      "type": "SCALAR",
      "max": [
        33.0
      ],
      "min": [
        0.0
      ]
    },
    {
      "bufferView": 13,
      "componentType": 5121,
      "count": 42,
      "type": "SCALAR",
      "max": [
        57.0
      ],
      "min": [
        2.0
      ]
    },
    {
      "bufferView": 14,
      "componentType": 5126,
      "count": 79,
      "type": "VEC3",
      "max": [
        0.1679999977350235,
        0.37296000123023987,
        0.11423999816179276
      ],
      "min": [
        -0.1679999977350235,
        0.0,
        -0.11423999816179276
      ]
    },
    {
      "bufferView": 15,
      "componentType": 5126,
      "count": 79,
      "type": "VEC3",
      "max": [
        1.0,
        1.0,
        1.0
      ],
      "min": [
        -1.0,
        -1.0,
        -1.0
      ]
    },
    {
      "bufferView": 16,
      "componentType": 5126,
      "count": 79,
      "type": "VEC4",
      "max": [
        1.0,
        0.0,
        1.0,
        1.0
      ],
      "min": [
        -1.0,
        0.0,
        -1.0,
        1.0
      ]
    },
    {
      "bufferView": 17,
      "componentType": 5126,
      "count": 79,
      "type": "VEC2",
      "max": [
        13.228346824645996,
        9.9952754974365234
      ],
      "min": [
        -13.228346824645996,
        -28.36693000793457
      ]
    },
    {
      "bufferView": 18,
      "componentType": 5121,
      "count": 81,
      "type": "SCALAR",
      "max": [
        46.0
      ],
      "min": [
        0.0
      ]
    },
    {
      "bufferView": 19,
      "componentType": 5121,
      "count": 99,
      "type": "SCALAR",
      "max": [
        78.0
      ],
      "min": [
        2.0
      ]
    },
    {
      "bufferView": 20,
      "componentType": 5121,
      "count": 42,
      "type": "SCALAR",
      "max": [
        78.0
      ],
      "min": [
        59.0
      ]
    },
    {
      "bufferView": 21,
      "componentType": 5126,
      "count": 187,
      "type": "VEC3",
      "max": [
        0.1592399924993515,
        0.21500000357627869,
        0.11423999816179276
      ],
      "min": [
        -0.1592399924993515,
        -0.062951669096946716,
        -0.13424000144004822
      ]
    },
    {
      "bufferView": 22,
      "componentType": 5126,
      "count": 187,
      "type": "VEC3",
      "max": [
        1.0,
        1.0,
        1.0
      ],
      "min": [
        -1.0,
        -1.0,
        -1.0
      ]
    },
    {
      "bufferView": 23,
      "componentType": 5126,
      "count": 187,
      "type": "VEC4",
      "max": [
        1.0,
        0.0,
        1.0,
        1.0
      ],
      "min": [
        -1.0,
        0.0,
        -1.0,
        1.0
      ]
    },
    {
      "bufferView": 24,
      "componentType": 5126,
      "count": 187,
      "type": "VEC2",
      "max": [
        12.538582801818848,
        11.57007884979248
      ],
      "min": [
        -12.538582801818848,
        -15.929134368896484
      ]
    },
    {
      "bufferView": 25,
      "componentType": 5121,
      "count": 300,
      "type": "SCALAR",
      "max": [
        145.0
      ],
      "min": [
        0.0
      ]
    },
    {
      "bufferView": 26,
      "componentType": 5121,
      "count": 162,
      "type": "SCALAR",
      "max": [
        186.0
      ],
      "min": [
        23.0
      ]
    },
    {
      "bufferView": 27,
      "componentType": 5126,
      "count": 117,
      "type": "VEC3",
      "max": [
        1.1550582572925159E-14,
        0.56999999284744263,
        0.40149590373039246
      ],
      "min": [
        -1.2900000810623169,
        2.8876456432312897E-15,
        -0.015200000256299973
      ]
    },
    {
      "bufferView": 28,
      "componentType": 5126,
      "count": 117,
      "type": "VEC3",
      "max": [
        1.0,
        0.96017944812774658,
        1.0
      ],
      "min": [
        -1.0,
        -1.0,
        -1.0
      ]
    },
    {
      "bufferView": 29,
      "componentType": 5126,
      "count": 117,
      "type": "VEC4",
      "max": [
        1.0,
        0.0,
        1.0,
        1.0
      ],
      "min": [
        -1.0,
        0.0,
        -1.0,
        1.0
      ]
    },
    {
      "bufferView": 30,
      "componentType": 5126,
      "count": 117,
      "type": "VEC2",
      "max": [
        98.8008804321289,
        77.403427124023438
      ],
      "min": [
        -101.57480621337891,
        -93.880386352539063
      ]
    },
    {
      "bufferView": 31,
      "componentType": 5121,
      "count": 243,
      "type": "SCALAR",
      "max": [
        116.0
      ],
      "min": [
        0.0
      ]
    },
    {
      "bufferView": 32,
      "componentType": 5121,
      "count": 63,
      "type": "SCALAR",
      "max": [
        114.0
      ],
      "min": [
        88.0
      ]
    },
    {
      "bufferView": 33,
      "componentType": 5126,
      "count": 48,
      "type": "VEC3",
      "max": [
        0.14394240081310272,
        0.0,
        0.071971200406551361
      ],
      "min": [
        -1.4438228216156449E-15,
        -0.40656000375747681,
        -0.10697119683027267
      ]
    },
    {
      "bufferView": 34,
      "componentType": 5126,
      "count": 48,
      "type": "VEC3",
      "max": [
        1.0,
        1.0,
        0.99660229682922363
      ],
      "min": [
        -1.0,
        -1.0,
        -1.0
      ]
    },
    {
      "bufferView": 35,
      "componentType": 5126,
      "count": 48,
      "type": "VEC4",
      "max": [
        1.0,
        0.0,
        1.0,
        1.0
      ],
      "min": [
        -1.0,
        0.0,
        -1.0,
        1.0
      ]
    },
    {
      "bufferView": 36,
      "componentType": 5126,
      "count": 48,
      "type": "VEC2",
      "max": [
        11.334047317504883,
        33.370586395263672
      ],
      "min": [
        -11.334047317504883,
        -4.6670236587524414
      ]
    },
    {
      "bufferView": 37,
      "componentType": 5121,
      "count": 30,
      "type": "SCALAR",
      "max": [
        19.0
      ],
      "min": [
        0.0
      ]
    },
    {
      "bufferView": 38,
      "componentType": 5121,
      "count": 54,
      "type": "SCALAR",
      "max": [
        47.0
      ],
      "min": [
        4.0
      ]
    },
    {
      "bufferView": 39,
      "componentType": 5126,
      "count": 64,
      "type": "VEC3",
      "max": [
        0.0,
        0.0,
        0.071971200406551361
      ],
      "min": [
        -0.14394240081310272,
        -0.40656000375747681,
        -0.088771194219589233
      ]
    },
    {
      "bufferView": 40,
      "componentType": 5126,
      "count": 64,
      "type": "VEC3",
      "max": [
        1.0,
        1.0,
        0.99715173244476318
      ],
      "min": [
        -1.0,
        -1.0,
        -0.99715173244476318
      ]
    },
    {
      "bufferView": 41,
      "componentType": 5126,
      "count": 64,
      "type": "VEC4",
      "max": [
        1.0,
        0.0,
        1.0,
        1.0
      ],
      "min": [
        -1.0,
        0.0,
        -1.0,
        1.0
      ]
    },
    {
      "bufferView": 42,
      "componentType": 5126,
      "count": 64,
      "type": "VEC2",
      "max": [
        11.334047317504883,
        33.185585021972656
      ],
      "min": [
        -11.334047317504883,
        -4.6670236587524414
      ]
    },
    {
      "bufferView": 43,
      "componentType": 5121,
      "count": 30,
      "type": "SCALAR",
      "max": [
        19.0
      ],
      "min": [
        0.0
      ]
    },
    {
      "bufferView": 44,
      "componentType": 5121,
      "count": 48,
      "type": "SCALAR",
      "max": [
        43.0
      ],
      "min": [
        20.0
      ]
    },
    {
      "bufferView": 45,
      "componentType": 5121,
      "count": 30,
      "type": "SCALAR",
      "max": [
        63.0
      ],
      "min": [
        44.0
      ]
    }
  ],
  "asset": {
    "version": "2.0"
  },
  "buffers": [
    {
      "uri": "pirate_officer.bin",
      "byteLength": 30726
    }
  ],
  "bufferViews": [
    {
      "buffer": 0,
      "byteLength": 696
    },
    {
      "buffer": 0,
      "byteOffset": 696,
      "byteLength": 696
    },
    {
      "buffer": 0,
      "byteOffset": 1392,
      "byteLength": 928
    },
    {
      "buffer": 0,
      "byteOffset": 2320,
      "byteLength": 464
    },
    {
      "buffer": 0,
      "byteOffset": 2784,
      "byteLength": 42
    },
    {
      "buffer": 0,
      "byteOffset": 2826,
      "byteLength": 24
    },
    {
      "buffer": 0,
      "byteOffset": 2850,
      "byteLength": 42
    },
    {
      "buffer": 0,
      "byteOffset": 2892,
      "byteLength": 696
    },
    {
      "buffer": 0,
      "byteOffset": 3588,
      "byteLength": 696
    },
    {
      "buffer": 0,
      "byteOffset": 4284,
      "byteLength": 928
    },
    {
      "buffer": 0,
      "byteOffset": 5212,
      "byteLength": 464
    },
    {
      "buffer": 0,
      "byteOffset": 5676,
      "byteLength": 24
    },
    {
      "buffer": 0,
      "byteOffset": 5700,
      "byteLength": 42
    },
    {
      "buffer": 0,
      "byteOffset": 5742,
      "byteLength": 42
    },
    {
      "buffer": 0,
      "byteOffset": 5784,
      "byteLength": 948
    },
    {
      "buffer": 0,
      "byteOffset": 6732,
      "byteLength": 948
    },
    {
      "buffer": 0,
      "byteOffset": 7680,
      "byteLength": 1264
    },
    {
      "buffer": 0,
      "byteOffset": 8944,
      "byteLength": 632
    },
    {
      "buffer": 0,
      "byteOffset": 9576,
      "byteLength": 81
    },
    {
      "buffer": 0,
      "byteOffset": 9657,
      "byteLength": 99
    },
    {
      "buffer": 0,
      "byteOffset": 9756,
      "byteLength": 42
    },
    {
      "buffer": 0,
      "byteOffset": 9798,
      "byteLength": 2244
    },
    {
      "buffer": 0,
      "byteOffset": 12042,
      "byteLength": 2244
    },
    {
      "buffer": 0,
      "byteOffset": 14286,
      "byteLength": 2992
    },
    {
      "buffer": 0,
      "byteOffset": 17278,
      "byteLength": 1496
    },
    {
      "buffer": 0,
      "byteOffset": 18774,
      "byteLength": 300
    },
    {
      "buffer": 0,
      "byteOffset": 19074,
      "byteLength": 162
    },
    {
      "buffer": 0,
      "byteOffset": 19236,
      "byteLength": 1404
    },
    {
      "buffer": 0,
      "byteOffset": 20640,
      "byteLength": 1404
    },
    {
      "buffer": 0,
      "byteOffset": 22044,
      "byteLength": 1872
    },
    {
      "buffer": 0,
      "byteOffset": 23916,
      "byteLength": 936
    },
    {
      "buffer": 0,
      "byteOffset": 24852,
      "byteLength": 243
    },
    {
      "buffer": 0,
      "byteOffset": 25095,
      "byteLength": 63
    },
    {
      "buffer": 0,
      "byteOffset": 25158,
      "byteLength": 576
    },
    {
      "buffer": 0,
      "byteOffset": 25734,
      "byteLength": 576
    },
    {
      "buffer": 0,
      "byteOffset": 26310,
      "byteLength": 768
    },
    {
      "buffer": 0,
      "byteOffset": 27078,
      "byteLength": 384
    },
    {
      "buffer": 0,
      "byteOffset": 27462,
      "byteLength": 30
    },
    {
      "buffer": 0,
      "byteOffset": 27492,
      "byteLength": 54
    },
    {
      "buffer": 0,
      "byteOffset": 27546,
      "byteLength": 768
    },
    {
      "buffer": 0,
      "byteOffset": 28314,
      "byteLength": 768
    },
    {
      "buffer": 0,
      "byteOffset": 29082,
      "byteLength": 1024
    },
    {
      "buffer": 0,
      "byteOffset": 30106,
      "byteLength": 512
    },
    {
      "buffer": 0,
      "byteOffset": 30618,
      "byteLength": 30
    },
    {
      "buffer": 0,
      "byteOffset": 30648,
      "byteLength": 48
    },
    {
      "buffer": 0,
      "byteOffset": 30696,
      "byteLength": 30
    }
  ],
  "materials": [
    {
      "pbrMetallicRoughness": {
        "baseColorFactor": [
          0.356862754,
          0.5411765,
          0.698039234,
          1.0
        ],
        "metallicFactor": 0.25,
        "roughnessFactor": 0.84999999403953552
      },
      "name": "textileBlue"
    },
    {
      "pbrMetallicRoughness": {
        "baseColorFactor": [
          0.819607854,
          0.7529412,
          0.670588255,
          1.0
        ],
        "metallicFactor": 0.25,
        "roughnessFactor": 0.84999999403953552
      },
      "name": "textile"
    },
    {
      "pbrMetallicRoughness": {
        "baseColorFactor": [
          0.847058833,
          0.7607843,
          0.607843161,
          1.0
        ],
        "metallicFactor": 0.25,
        "roughnessFactor": 0.84999999403953552
      },
      "name": "sand"
    },
    {
      "pbrMetallicRoughness": {
        "baseColorFactor": [
          0.7294118,
          0.4627451,
          0.2784314,
          1.0
        ],
        "metallicFactor": 0.25,
        "roughnessFactor": 0.84999999403953552
      },
      "name": "wood"
    },
    {
      "pbrMetallicRoughness": {
        "baseColorFactor": [
          0.3764706,
          0.3764706,
          0.3764706,
          1.0
        ],
        "metallicFactor": 0.25,
        "roughnessFactor": 0.84999999403953552
      },
      "name": "iron"
    }
  ],
  "meshes": [
    {
      "primitives": [
        {
          "attributes": {
            "POSITION": 0,
            "NORMAL": 1,
            "TANGENT": 2,
            "TEXCOORD_0": 3
          },
          "indices": 4,
          "material": 0
        },
        {
          "attributes": {
            "POSITION": 0,
            "NORMAL": 1,
            "TANGENT": 2,
            "TEXCOORD_0": 3
          },
          "indices": 5,
          "material": 1
        },
        {
          "attributes": {
            "POSITION": 0,
            "NORMAL": 1,
            "TANGENT": 2,
            "TEXCOORD_0": 3
          },
          "indices": 6,
          "material": 2
        }
      ],
      "name": "armLeft 2"
    },
    {
      "primitives": [
        {
          "attributes": {
            "POSITION": 7,
            "NORMAL": 8,
            "TANGENT": 9,
            "TEXCOORD_0": 10
          },
          "indices": 11,
          "material": 1
        },
        {
          "attributes": {
            "POSITION": 7,
            "NORMAL": 8,
            "TANGENT": 9,
            "TEXCOORD_0": 10
          },
          "indices": 12,
          "material": 2
        },
        {
          "attributes": {
            "POSITION": 7,
            "NORMAL": 8,
            "TANGENT": 9,
            "TEXCOORD_0": 10
          },
          "indices": 13,
          "material": 0
        }
      ],
      "name": "armRight 2"
    },
    {
      "primitives": [
        {
          "attributes": {
            "POSITION": 14,
            "NORMAL": 15,
            "TANGENT": 16,
            "TEXCOORD_0": 17
          },
          "indices": 18,
          "material": 0
        },
        {
          "attributes": {
            "POSITION": 14,
            "NORMAL": 15,
            "TANGENT": 16,
            "TEXCOORD_0": 17
          },
          "indices": 19,
          "material": 3
        },
        {
          "attributes": {
            "POSITION": 14,
            "NORMAL": 15,
            "TANGENT": 16,
            "TEXCOORD_0": 17
          },
          "indices": 20,
          "material": 1
        }
      ],
      "name": "body 2"
    },
    {
      "primitives": [
        {
          "attributes": {
            "POSITION": 21,
            "NORMAL": 22,
            "TANGENT": 23,
            "TEXCOORD_0": 24
          },
          "indices": 25,
          "material": 2
        },
        {
          "attributes": {
            "POSITION": 21,
            "NORMAL": 22,
            "TANGENT": 23,
            "TEXCOORD_0": 24
          },
          "indices": 26,
          "material": 4
        }
      ],
      "name": "Group 85"
    },
    {
      "primitives": [
        {
          "attributes": {
            "POSITION": 27,
            "NORMAL": 28,
            "TANGENT": 29,
            "TEXCOORD_0": 30
          },
          "indices": 31,
          "material": 4
        },
        {
          "attributes": {
            "POSITION": 27,
            "NORMAL": 28,
            "TANGENT": 29,
            "TEXCOORD_0": 30
          },
          "indices": 32,
          "material": 1
        }
      ],
      "name": "Group 85"
    },
    {
      "primitives": [
        {
          "attributes": {
            "POSITION": 33,
            "NORMAL": 34,
            "TANGENT": 35,
            "TEXCOORD_0": 36
          },
          "indices": 37,
          "material": 4
        },
        {
          "attributes": {
            "POSITION": 33,
            "NORMAL": 34,
            "TANGENT": 35,
            "TEXCOORD_0": 36
          },
          "indices": 38,
          "material": 3
        }
      ],
      "name": "legLeft 2"
    },
    {
      "primitives": [
        {
          "attributes": {
            "POSITION": 39,
            "NORMAL": 40,
            "TANGENT": 41,
            "TEXCOORD_0": 42
          },
          "indices": 43,
          "material": 4
        },
        {
          "attributes": {
            "POSITION": 39,
            "NORMAL": 40,
            "TANGENT": 41,
            "TEXCOORD_0": 42
          },
          "indices": 44,
          "material": 1
        },
        {
          "attributes": {
            "POSITION": 39,
            "NORMAL": 40,
            "TANGENT": 41,
            "TEXCOORD_0": 42
          },
          "indices": 45,
          "material": 3
        }
      ],
      "name": "legRight 2"
    }
  ],
  "nodes": [
    {
      "children": [
        1,
        2,
        3,
        4,
        6,
        7
      ],
      "translation": [
        -4.304184,
        2.0574476E-14,
        -7.591939
      ],
      "name": "pirate_officer_8angles"
    },
    {
      "mesh": 0,
      "translation": [
        -0.168,
        0.70452,
        0.0
      ],
      "name": "armLeft 2"
    },
    {
      "mesh": 1,
      "translation": [
        0.168,
        0.70452,
        0.0
      ],
      "name": "armRight 2"
    },
    {
      "mesh": 2,
      "translation": [
        2.88764564E-15,
        0.40656,
        3.609557E-16
      ],
      "name": "body 2"
    },
    {
      "children": [
        5
      ],
      "mesh": 3,
      "translation": [
        -2.88764564E-15,
        0.77952,
        -7.219114E-16
      ],
      "name": "Group 85"
    },
    {
      "mesh": 4,
      "rotation": [
        0.130526185,
        0.0,
        0.0,
        0.9914449
      ],
      "scale": [
        0.35423255,
        0.35,
        0.601263165
      ],
      "translation": [
        0.22848,
        0.2,
        -0.11424
      ],
      "name": "Group 85"
    },
    {
      "mesh": 5,
      "translation": [
        -0.155232,
        0.40656,
        -3.609557E-16
      ],
      "name": "legLeft 2"
    },
    {
      "mesh": 6,
      "translation": [
        0.155232,
        0.40656,
        -3.609557E-16
      ],
      "name": "legRight 2"
    }
  ],
  "scene": 0,
  "scenes": [
    {
      "nodes": [
        0
      ],
      "name": "pirate_officer"
    }
  ]
}