{
  "accessors": [
    {
      "bufferView": 0,
      "componentType": 5126,
      "count": 4507,
      "type": "VEC3",
      "max": [
        1.4250975847244263,
        5.920844554901123,
        3.1995406150817871
      ],
      "min": [
        -1.4250975847244263,
        -1.6243006610827107E-15,
        -4.8496489524841309
      ]
    },
    {
      "bufferView": 1,
      "componentType": 5126,
      "count": 4507,
      "type": "VEC3",
      "max": [
        1.0,
        1.0,
        1.0
      ],
      "min": [
        -1.0,
        -1.0,
        -1.0
      ]
    },
    {
      "bufferView": 2,
      "componentType": 5126,
      "count": 4507,
      "type": "VEC4",
      "max": [
        1.0,
        0.14387080073356628,
        1.0,
        1.0
      ],
      "min": [
        -1.0,
        -0.14387084543704987,
        -1.0,
        -1.0
      ]
    },
    {
      "bufferView": 3,
      "componentType": 5126,
      "count": 4507,
      "type": "VEC2",
      "max": [
        375.39724731445313,
        326.95660400390625
      ],
      "min": [
        -375.39724731445313,
        -466.39456176757813
      ]
    },
    {
      "bufferView": 4,
      "componentType": 5123,
      "count": 6534,
      "type": "SCALAR",
      "max": [
        3207.0
      ],
      "min": [
        0.0
      ]
    },
    {
      "bufferView": 5,
      "componentType": 5123,
      "count": 966,
      "type": "SCALAR",
      "max": [
        3539.0
      ],
      "min": [
        10.0
      ]
    },
    {
      "bufferView": 6,
      "componentType": 5123,
      "count": 1254,
      "type": "SCALAR",
      "max": [
        4213.0
      ],
      "min": [
        3540.0
      ]
    },
    {
      "bufferView": 7,
      "componentType": 5123,
      "count": 156,
      "type": "SCALAR",
      "max": [
        4273.0
      ],
      "min": [
        4214.0
      ]
    },
    {
      "bufferView": 8,
      "componentType": 5123,
      "count": 597,
      "type": "SCALAR",
      "max": [
        4503.0
      ],
      "min": [
        578.0
      ]
    },
    {
      "bufferView": 9,
      "componentType": 5123,
      "count": 3,
      "type": "SCALAR",
      "max": [
        4506.0
      ],
      "min": [
        4504.0
      ]
    }
  ],
  "asset": {
    "version": "2.0"
  },
  "buffers": [
    {
      "uri": "ship_wreck.bin",
      "byteLength": 235356
    }
  ],
  "bufferViews": [
    {
      "buffer": 0,
      "byteLength": 54084
    },
    {
      "buffer": 0,
      "byteOffset": 54084,
      "byteLength": 54084
    },
    {
      "buffer": 0,
      "byteOffset": 108168,
      "byteLength": 72112
    },
    {
      "buffer": 0,
      "byteOffset": 180280,
      "byteLength": 36056
    },
    {
      "buffer": 0,
      "byteOffset": 216336,
      "byteLength": 13068
    },
    {
      "buffer": 0,
      "byteOffset": 229404,
      "byteLength": 1932
    },
    {
      "buffer": 0,
      "byteOffset": 231336,
      "byteLength": 2508
    },
    {
      "buffer": 0,
      "byteOffset": 233844,
      "byteLength": 312
    },
    {
      "buffer": 0,
      "byteOffset": 234156,
      "byteLength": 1194
    },
    {
      "buffer": 0,
      "byteOffset": 235350,
      "byteLength": 6
    }
  ],
  "materials": [
    {
      "pbrMetallicRoughness": {
        "baseColorFactor": [
          0.7294118,
          0.4627451,
          0.2784314,
          1.0
        ],
        "metallicFactor": 0.25,
        "roughnessFactor": 0.84999999403953552
      },
      "name": "wood"
    },
    {
      "pbrMetallicRoughness": {
        "baseColorFactor": [
          0.3764706,
          0.3764706,
          0.3764706,
          1.0
        ],
        "metallicFactor": 0.25,
        "roughnessFactor": 0.84999999403953552
      },
      "name": "iron"
    },
    {
      "pbrMetallicRoughness": {
        "baseColorFactor": [
          0.521568656,
          0.329411775,
          0.196078435,
          1.0
        ],
        "metallicFactor": 0.25,
        "roughnessFactor": 0.84999999403953552
      },
      "name": "woodDark"
    },
    {
      "pbrMetallicRoughness": {
        "baseColorFactor": [
          0.6627451,
          0.7372549,
          0.768627465,
          1.0
        ],
        "metallicFactor": 0.25,
        "roughnessFactor": 0.84999999403953552
      },
      "name": "window"
    },
    {
      "pbrMetallicRoughness": {
        "baseColorFactor": [
          0.227450982,
          0.5568628,
          0.321568638,
          1.0
        ],
        "metallicFactor": 0.25,
        "roughnessFactor": 0.84999999403953552
      },
      "name": "leaves"
    },
    {
      "pbrMetallicRoughness": {
        "metallicFactor": 0.0,
        "roughnessFactor": 0.5
      },
      "name": "_defaultMat"
    }
  ],
  "meshes": [
    {
      "primitives": [
        {
          "attributes": {
            "POSITION": 0,
            "NORMAL": 1,
            "TANGENT": 2,
            "TEXCOORD_0": 3
          },
          "indices": 4,
          "material": 0
        },
        {
          "attributes": {
            "POSITION": 0,
            "NORMAL": 1,
            "TANGENT": 2,
            "TEXCOORD_0": 3
          },
          "indices": 5,
          "material": 1
        },
        {
          "attributes": {
            "POSITION": 0,
            "NORMAL": 1,
            "TANGENT": 2,
            "TEXCOORD_0": 3
          },
          "indices": 6,
          "material": 2
        },
        {
          "attributes": {
            "POSITION": 0,
            "NORMAL": 1,
            "TANGENT": 2,
            "TEXCOORD_0": 3
          },
          "indices": 7,
          "material": 3
        },
        {
          "attributes": {
            "POSITION": 0,
            "NORMAL": 1,
            "TANGENT": 2,
            "TEXCOORD_0": 3
          },
          "indices": 8,
          "material": 4
        },
        {
          "attributes": {
            "POSITION": 0,
            "NORMAL": 1,
            "TANGENT": 2,
            "TEXCOORD_0": 3
          },
          "indices": 9,
          "material": 5
        }
      ],
      "name": "ship_wreck_8angles"
    }
  ],
  "nodes": [
    {
      "mesh": 0,
      "translation": [
        9.254903,
        2.14768643E-14,
        0.0144567313
      ],
      "name": "ship_wreck_8angles"
    }
  ],
  "scene": 0,
  "scenes": [
    {
      "nodes": [
        0
      ],
      "name": "ship_wreck"
    }
  ]
}