{
  "accessors": [
    {
      "bufferView": 0,
      "componentType": 5126,
      "count": 1420,
      "type": "VEC3",
      "max": [
        1.2900000810623169,
        3.7149999141693115,
        1.7501695156097412
      ],
      "min": [
        -2.0323894023895264,
        -1.4438228216156449E-15,
        -1.5900000333786011
      ]
    },
    {
      "bufferView": 1,
      "componentType": 5126,
      "count": 1420,
      "type": "VEC3",
      "max": [
        1.0,
        1.0,
        1.0
      ],
      "min": [
        -1.0,
        -1.0,
        -1.0
      ]
    },
    {
      "bufferView": 2,
      "componentType": 5126,
      "count": 1420,
      "type": "VEC4",
      "max": [
        1.0,
        0.10780872404575348,
        1.0,
        1.0
      ],
      "min": [
        -1.0,
        -0.10780875384807587,
        -1.0,
        -1.0
      ]
    },
    {
      "bufferView": 3,
      "componentType": 5126,
      "count": 1420,
      "type": "VEC2",
      "max": [
        160.03067016601563,
        151.08102416992188
      ],
      "min": [
        -157.06585693359375,
        -291.51968383789063
      ]
    },
    {
      "bufferView": 4,
      "componentType": 5123,
      "count": 1692,
      "type": "SCALAR",
      "max": [
        815.0
      ],
      "min": [
        0.0
      ]
    },
    {
      "bufferView": 5,
      "componentType": 5123,
      "count": 108,
      "type": "SCALAR",
      "max": [
        849.0
      ],
      "min": [
        816.0
      ]
    },
    {
      "bufferView": 6,
      "componentType": 5123,
      "count": 438,
      "type": "SCALAR",
      "max": [
        1029.0
      ],
      "min": [
        850.0
      ]
    },
    {
      "bufferView": 7,
      "componentType": 5123,
      "count": 78,
      "type": "SCALAR",
      "max": [
        313.0
      ],
      "min": [
        166.0
      ]
    },
    {
      "bufferView": 8,
      "componentType": 5123,
      "count": 327,
      "type": "SCALAR",
      "max": [
        1212.0
      ],
      "min": [
        372.0
      ]
    },
    {
      "bufferView": 9,
      "componentType": 5123,
      "count": 357,
      "type": "SCALAR",
      "max": [
        1413.0
      ],
      "min": [
        1213.0
      ]
    },
    {
      "bufferView": 10,
      "componentType": 5123,
      "count": 12,
      "type": "SCALAR",
      "max": [
        1419.0
      ],
      "min": [
        1414.0
      ]
    }
  ],
  "asset": {
    "version": "2.0"
  },
  "buffers": [
    {
      "uri": "tower.bin",
      "byteLength": 74184
    }
  ],
  "bufferViews": [
    {
      "buffer": 0,
      "byteLength": 17040
    },
    {
      "buffer": 0,
      "byteOffset": 17040,
      "byteLength": 17040
    },
    {
      "buffer": 0,
      "byteOffset": 34080,
      "byteLength": 22720
    },
    {
      "buffer": 0,
      "byteOffset": 56800,
      "byteLength": 11360
    },
    {
      "buffer": 0,
      "byteOffset": 68160,
      "byteLength": 3384
    },
    {
      "buffer": 0,
      "byteOffset": 71544,
      "byteLength": 216
    },
    {
      "buffer": 0,
      "byteOffset": 71760,
      "byteLength": 876
    },
    {
      "buffer": 0,
      "byteOffset": 72636,
      "byteLength": 156
    },
    {
      "buffer": 0,
      "byteOffset": 72792,
      "byteLength": 654
    },
    {
      "buffer": 0,
      "byteOffset": 73446,
      "byteLength": 714
    },
    {
      "buffer": 0,
      "byteOffset": 74160,
      "byteLength": 24
    }
  ],
  "materials": [
    {
      "pbrMetallicRoughness": {
        "baseColorFactor": [
          0.58431375,
          0.6862745,
          0.75686276,
          1.0
        ],
        "metallicFactor": 0.25,
        "roughnessFactor": 0.84999999403953552
      },
      "name": "stone"
    },
    {
      "pbrMetallicRoughness": {
        "baseColorFactor": [
          0.521568656,
          0.329411775,
          0.196078435,
          1.0
        ],
        "metallicFactor": 0.25,
        "roughnessFactor": 0.84999999403953552
      },
      "name": "woodDark"
    },
    {
      "pbrMetallicRoughness": {
        "metallicFactor": 0.0,
        "roughnessFactor": 0.5
      },
      "name": "_defaultMat"
    },
    {
      "pbrMetallicRoughness": {
        "baseColorFactor": [
          0.3764706,
          0.3764706,
          0.3764706,
          1.0
        ],
        "metallicFactor": 0.25,
        "roughnessFactor": 0.84999999403953552
      },
      "name": "iron"
    },
    {
      "pbrMetallicRoughness": {
        "baseColorFactor": [
          0.7294118,
          0.4627451,
          0.2784314,
          1.0
        ],
        "metallicFactor": 0.25,
        "roughnessFactor": 0.84999999403953552
      },
      "name": "wood"
    },
    {
      "pbrMetallicRoughness": {
        "baseColorFactor": [
          0.847058833,
          0.7607843,
          0.607843161,
          1.0
        ],
        "metallicFactor": 0.25,
        "roughnessFactor": 0.84999999403953552
      },
      "name": "sand"
    },
    {
      "pbrMetallicRoughness": {
        "baseColorFactor": [
          0.819607854,
          0.7529412,
          0.670588255,
          1.0
        ],
        "metallicFactor": 0.25,
        "roughnessFactor": 0.84999999403953552
      },
      "name": "textile"
    }
  ],
  "meshes": [
    {
      "primitives": [
        {
          "attributes": {
            "POSITION": 0,
            "NORMAL": 1,
            "TANGENT": 2,
            "TEXCOORD_0": 3
          },
          "indices": 4,
          "material": 0
        },
        {
          "attributes": {
            "POSITION": 0,
            "NORMAL": 1,
            "TANGENT": 2,
            "TEXCOORD_0": 3
          },
          "indices": 5,
          "material": 1
        },
        {
          "attributes": {
            "POSITION": 0,
            "NORMAL": 1,
            "TANGENT": 2,
            "TEXCOORD_0": 3
          },
          "indices": 6,
          "material": 2
        },
        {
          "attributes": {
            "POSITION": 0,
            "NORMAL": 1,
            "TANGENT": 2,
            "TEXCOORD_0": 3
          },
          "indices": 7,
          "material": 3
        },
        {
          "attributes": {
            "POSITION": 0,
            "NORMAL": 1,
            "TANGENT": 2,
            "TEXCOORD_0": 3
          },
          "indices": 8,
          "material": 4
        },
        {
          "attributes": {
            "POSITION": 0,
            "NORMAL": 1,
            "TANGENT": 2,
            "TEXCOORD_0": 3
          },
          "indices": 9,
          "material": 5
        },
        {
          "attributes": {
            "POSITION": 0,
            "NORMAL": 1,
            "TANGENT": 2,
            "TEXCOORD_0": 3
          },
          "indices": 10,
          "material": 6
        }
      ],
      "name": "tower"
    }
  ],
  "nodes": [
    {
      "mesh": 0,
      "translation": [
        -5.514912,
        1.44382293E-15,
        -1.62657249
      ],
      "name": "tower"
    }
  ],
  "scene": 0,
  "scenes": [
    {
      "nodes": [
        0
      ],
      "name": "tower"
    }
  ]
}